<svg version="1.2" xmlns="http://www.w3.org/2000/svg" viewBox="0 0 480 900" width="480" height="900">
	<title>Min (3)</title>
	<defs>
		<linearGradient id="g1" x2="1" gradientUnits="userSpaceOnUse" gradientTransform="matrix(-6.536,-1.857,.807,-2.841,277.645,293.094)">
			<stop offset="0" stop-color="#c13c1b" stop-opacity="1"/>
			<stop offset=".839" stop-color="#c13c1b" stop-opacity=".5"/>
			<stop offset="1" stop-color="#c13c1b" stop-opacity="0"/>
		</linearGradient>
		<linearGradient id="g2" x2="1" gradientUnits="userSpaceOnUse" gradientTransform="matrix(-6.543,-1.859,.755,-2.656,275.961,296.367)">
			<stop offset="0" stop-color="#c13c1b" stop-opacity="1"/>
			<stop offset=".839" stop-color="#c13c1b" stop-opacity=".5"/>
			<stop offset="1" stop-color="#c13c1b" stop-opacity="0"/>
		</linearGradient>
		<linearGradient id="g3" x2="1" gradientUnits="userSpaceOnUse" gradientTransform="matrix(-6.428,-1.522,.675,-2.85,279.455,289.875)">
			<stop offset="0" stop-color="#c13c1b" stop-opacity="1"/>
			<stop offset=".839" stop-color="#c13c1b" stop-opacity=".5"/>
			<stop offset="1" stop-color="#c13c1b" stop-opacity="0"/>
		</linearGradient>
		<linearGradient id="g4" x2="1" gradientUnits="userSpaceOnUse" gradientTransform="matrix(-6.543,-1.859,.755,-2.656,281.064,287.076)">
			<stop offset="0" stop-color="#c13c1b" stop-opacity="1"/>
			<stop offset=".839" stop-color="#c13c1b" stop-opacity=".5"/>
			<stop offset="1" stop-color="#c13c1b" stop-opacity="0"/>
		</linearGradient>
		<linearGradient id="g5" x2="1" gradientUnits="userSpaceOnUse" gradientTransform="matrix(-6.536,-1.857,.807,-2.841,282.556,284.272)">
			<stop offset="0" stop-color="#c13c1b" stop-opacity="1"/>
			<stop offset=".839" stop-color="#c13c1b" stop-opacity=".5"/>
			<stop offset="1" stop-color="#c13c1b" stop-opacity="0"/>
		</linearGradient>
		<linearGradient id="g6" x2="1" gradientUnits="userSpaceOnUse" gradientTransform="matrix(-6.428,-1.522,.658,-2.777,284.366,281.054)">
			<stop offset="0" stop-color="#c13c1b" stop-opacity="1"/>
			<stop offset=".839" stop-color="#c13c1b" stop-opacity=".5"/>
			<stop offset="1" stop-color="#c13c1b" stop-opacity="0"/>
		</linearGradient>
		<linearGradient id="g7" x2="1" gradientUnits="userSpaceOnUse" gradientTransform="matrix(-6.543,-1.859,.755,-2.656,285.976,278.254)">
			<stop offset="0" stop-color="#c13c1b" stop-opacity="1"/>
			<stop offset=".839" stop-color="#c13c1b" stop-opacity=".5"/>
			<stop offset="1" stop-color="#c13c1b" stop-opacity="0"/>
		</linearGradient>
		<linearGradient id="g8" x2="1" gradientUnits="userSpaceOnUse" gradientTransform="matrix(-6.536,-1.857,.786,-2.766,290.218,271.074)">
			<stop offset="0" stop-color="#c13c1b" stop-opacity="1"/>
			<stop offset=".839" stop-color="#c13c1b" stop-opacity=".5"/>
			<stop offset="1" stop-color="#c13c1b" stop-opacity="0"/>
		</linearGradient>
		<linearGradient id="g9" x2="1" gradientUnits="userSpaceOnUse" gradientTransform="matrix(-6.464,-1.36,.623,-2.962,288.129,274.569)">
			<stop offset="0" stop-color="#c13c1b" stop-opacity="1"/>
			<stop offset=".839" stop-color="#c13c1b" stop-opacity=".5"/>
			<stop offset="1" stop-color="#c13c1b" stop-opacity="0"/>
		</linearGradient>
	</defs>
	<style>
		.s0 { fill: none;stroke: url(#g1);stroke-linecap: round;stroke-width: .7 } 
		.s1 { fill: none;stroke: url(#g2);stroke-linecap: round;stroke-width: .7 } 
		.s2 { fill: none;stroke: url(#g3);stroke-linecap: round;stroke-width: .7 } 
		.s3 { fill: none;stroke: url(#g4);stroke-linecap: round;stroke-width: .7 } 
		.s4 { fill: none;stroke: url(#g5);stroke-linecap: round;stroke-width: .7 } 
		.s5 { fill: none;stroke: url(#g6);stroke-linecap: round;stroke-width: .7 } 
		.s6 { fill: none;stroke: url(#g7);stroke-linecap: round;stroke-width: .7 } 
		.s7 { fill: none;stroke: url(#g8);stroke-linecap: round;stroke-width: .7 } 
		.s8 { fill: none;stroke: url(#g9);stroke-linecap: round;stroke-width: .7 } 
		.s9 { fill: #fac53a } 
		.s10 { fill: none;stroke: #000000;stroke-linecap: round;stroke-width: .7 } 
		.s11 { fill: none;stroke: #000000;stroke-linecap: round;stroke-linejoin: round;stroke-width: 8.3 } 
		.s12 { fill: none;stroke: #c13c1b;stroke-linecap: round;stroke-linejoin: round;stroke-width: 7 } 
		.s13 { fill: none;stroke: #000000;stroke-linecap: round;stroke-linejoin: round;stroke-width: .6 } 
		.s14 { fill: #ffffff;stroke: #000000;stroke-width: .8 } 
		.s15 { fill: #000000;stroke: #000000;stroke-width: .8 } 
		.s16 { fill: #c13c1b;stroke: #000000 } 
		.s17 { fill: #ffffff;stroke: #000000;stroke-linecap: round;stroke-linejoin: round;stroke-width: .4 } 
		.s18 { fill: none;stroke: #0044aa;stroke-linejoin: round;stroke-width: 4.2 } 
		.s19 { fill: none;stroke: #308d57;stroke-width: 2.6 } 
		.s20 { fill: none;stroke: #c13c1b;stroke-width: 2.6 } 
		.s21 { fill: none;stroke: #0044aa;stroke-width: 3.8 } 
		.s22 { fill: none;stroke: #fac53a;stroke-width: 9.4 } 
		.s23 { fill: none;stroke: #000000;stroke-linecap: round;stroke-linejoin: round;stroke-width: .5 } 
		.s24 { fill: none;stroke: #c13c1b;stroke-width: .4 } 
		.s25 { fill: none;stroke: #c13c1b;stroke-linecap: round;stroke-linejoin: round;stroke-width: .4 } 
		.s26 { fill: #000000;stroke: #808080;stroke-width: .4 } 
		.s27 { fill: #fac53a;stroke: #c13c1b;stroke-linecap: round;stroke-linejoin: round;stroke-width: 1.2 } 
		.s28 { fill: #0044aa;stroke: #c13c1b;stroke-linecap: round;stroke-linejoin: round;stroke-width: 1.2 } 
		.s29 { fill: none;stroke: #808080;stroke-width: 1.1 } 
		.s30 { fill: #fac53a;stroke: #808080;stroke-width: .4 } 
		.s31 { fill: #808080;stroke: #808080;stroke-width: .4 } 
		.s32 { fill: none;stroke: #808080;stroke-width: .4 } 
		.s33 { fill: none;stroke: #808080;stroke-linecap: round;stroke-linejoin: round;stroke-width: .4 } 
		.s34 { fill: #000000;stroke: #000000;stroke-width: .4 } 
		.s35 { fill: none;stroke: #c13c1b;stroke-linecap: round;stroke-linejoin: round;stroke-width: .7 } 
		.s36 { fill: #fac53a;stroke: #000000;stroke-linecap: round;stroke-linejoin: round;stroke-width: .4 } 
		.s37 { fill: #0044aa;stroke: #000000;stroke-linecap: round;stroke-linejoin: round;stroke-width: .4 } 
		.s38 { fill: #000000;stroke: #808080;stroke-width: .5 } 
		.s39 { fill: #fac53a;stroke: #000000;stroke-linejoin: round;stroke-width: .7 } 
		.s40 { fill: none;stroke: #000000;stroke-linecap: round;stroke-width: .4 } 
		.s41 { fill: #fac53a;stroke: #000000;stroke-linecap: round;stroke-width: .4 } 
		.s42 { fill: #ffff00;stroke: #000000;stroke-width: .4 } 
		.s43 { fill: none;stroke: #000000;stroke-width: .4 } 
		.s44 { fill: #fac53a;stroke: #000000;stroke-linejoin: round;stroke-width: .4 } 
		.s45 { fill: #ffffff;stroke: #ffffff;stroke-width: .4 } 
		.s46 { fill: #ffffff;stroke: #000000;stroke-width: .4 } 
		.s47 { fill: #ffffff;stroke: #c13c1b;stroke-width: .9 } 
		.s48 { fill: none;stroke: #c13c1b;stroke-width: .9 } 
		.s49 { fill: #fac53a;stroke: #000000;stroke-width: .5 } 
		.s50 { fill: #000000 } 
		.s51 { fill: none;stroke: #808080;stroke-width: .6 } 
	</style>
	<g id="layer1">
		<g id="g11483">
			<path id="path4188" class="s0" d="m271.9 290.1l5 4.1"/>
			<path id="path14084" class="s1" d="m270.2 293.5l5 3.9"/>
			<path id="path11004" class="s2" d="m273.7 287.2l5 3.8"/>
			<path id="path11008" class="s3" d="m275.3 284.2l5 3.9"/>
			<path id="path11031" class="s4" d="m276.8 281.3l5 4.1"/>
			<path id="path11033" class="s5" d="m278.6 278.4l5.1 3.8"/>
			<path id="path11035" class="s6" d="m280.2 275.4l5 3.9"/>
			<path id="path11043" class="s7" d="m284.4 268.1l5.1 4.1"/>
			<path id="path14107" class="s8" d="m282.4 272l5 3.7"/>
			<path id="rect3610" fill-rule="evenodd" class="s9" d="m286 280.8l-7.3-4.6-9 15.2 7.4 4.6z"/>
			<path id="rect3614" fill-rule="evenodd" class="s9" d="m302.3 252.8l-7-4.4-8.2 13.8 6.9 4.4z"/>
			<path id="rect3616" fill-rule="evenodd" class="s9" d="m318.5 224.9l-6.9-4.4-8.3 13.8 7 4.4z"/>
			<path id="rect3618" fill-rule="evenodd" class="s9" d="m334.5 197.1l-7.1-4.3-7.8 13.7 7.1 4.3z"/>
			<path id="path3620" fill-rule="evenodd" class="s9" d="m349.3 171.7l-6.6-4.1-8.3 13.4 7 4.4z"/>
			<path id="path4561" class="s10" d="m236.8 347.9l7.4 3.8"/>
			<path id="path6601" class="s11" d="m204.7 251.4c7.9-0.2 10.7 3.2 12.7 5.9 1.1 1.6-0.1 48.7-0.2 74.1-0.3 16.6-0.3 507.8-0.3 507.8"/>
			<path id="path2407" class="s12" d="m205.3 251.5c7.5-0.3 10.2 3.2 12 5.8 1.1 1.5 0 46.5-0.1 70.8-0.3 15.9-0.3 510.9-0.3 510.9"/>
			<path id="path3590" fill-rule="evenodd" class="s9" d="m244.7 354.1c-0.2-0.7-0.5-1.9-0.2-2.7l108.6-186.2c0 0 8.2-15.1 11-19.1 0.2-0.2 5.9-11.2 7-13-3.6-2.7-5.4-3.4-5.8-3.8l-18.2 30.7-110.6 187.3c-0.5 0.5-0.7 1.8-1.5 1.7"/>
			<path id="path3622" fill-rule="evenodd" class="s9" d="m363.4 146.2l-6-3.6-6.6 11 6.6 3.9z"/>
			<g id="g3634">
				<path id="path3636" class="s13" d="m365.8 128.5l-38.9 65.5-90.5 154.1c-0.5 0.5-1.1 0.7-1.8 0.9l10.1 5.1c-0.5-0.8-0.5-1.9-0.1-2.4l88.3-152.5c0 0 36.4-62.3 38.6-66.5"/>
			</g>
			<path id="path2328 copy" fill-rule="evenodd" class="s14" d="m130 476.6c-2 9-3.5 17.7-4.4 26-3.6 14.4-38.5 8.1-59.4 4.6-5.3-6.6-20.6-2.4-21.9 0.9-0.7 2.2 8.8 9.1 19.4 12.1 17.2 6.5 56.6 5 60.6 18 1.5 33.6 10.4 64 21.3 100.1-3.3 35-1.1 118.8 3.5 152.5-2.4 9.1-24.5 14.9-31.5 19.6-11.8 6.6-26.6 10.5-38.7 16.6-4.2 1.7-10 1-13.7 0.9-3.5-1.1-3.5 6.7 2.2 9.6 35 0.2 86.1-0.1 121.8 0.1 6.8-6.2 2.6-17.3 0.8-24.7-1-4.5-2.1-8.8-1.2-13.4 6.9-60.4 9.1-98.1 2.5-151.3 11.5-42.2 15.4-83.5 17.4-121.5 6.2-18.4 0.1-32.2-5.2-56.4l1-20.7 1.5-8.2 1.2-2.7c5.4-15.3 13-34.1 24.9-48.1 9.4-11.8 15.8-20.7 26.3-26.3 15-8.1 34.5-10.9 52-14.3 14.7-2.9 39.9-11.1 46.9-14.7 7.2-1.4 9.9-3.7 10.4-7 3.5-24.1 4.5-56.1 2.9-80.7l-24.6-0.1c-4.4 27.1-4.5 38.8-6.3 60.1-29.9 4-51.5 12-69.6 15-4.4-3.4-15.1-2.6-16.7-2.1-35.6 10.5-48 1.5-60.7-0.7-12.6-2.3-39.9 3.4-39.9 3.4l-41.7 8.1c-23.1 0.3-27.5 31.3-5.3 42.5 14.8 31.8 21.2 58.5 24.4 77 0.4 5.8-0.2 19.9-0.2 25.7"/>
			<path id="path2328 copy 2" fill-rule="evenodd" class="s15" d="m258.4 364.3c15-8.2 34.5-10.9 52-14.3 14.7-2.9 39.9-11.1 46.9-14.7 7.2-1.4 9.9-3.7 10.4-7 3.5-24.1 4.5-56.1 2.9-80.7l-24.6-0.1c-4.4 27.1-4.5 38.8-6.3 60.1-29.9 4-51.5 12-69.6 15-4.4-3.4-15.1-2.5-16.7-2.1-33.9 9.2-2.3-2 4.9 20.9 6.6 21.2-18.3 32.9 0.1 22.9z"/>
			<path id="path11181" fill-rule="evenodd" class="s16" d="m143 348.1l38.4 153 10.1-3.5-36.9-147z"/>
			<path id="path11183" fill-rule="evenodd" class="s16" d="m188.9 355.6l-52.5 138.9 9.1 5.6 57.1-148.5z"/>
			<g id="g43293">
				<path id="path17950" fill-rule="evenodd" class="s17" d="m124.2 328.7l28.4-5.7 40.3-3.2 31 6.4c-5.8 29.5-25.8 40-48.9 40.5-21.9 0.5-32.1-5.1-39.2-12.7-6.8-7.3-10.4-18.6-11.6-25.3z"/>
				<path id="path22080" class="s18" d="m136 326.3c4.3 21.3 16.7 29.1 39.5 28.2 22.9-0.9 34.3-15.5 35.7-29.8 0-0.2 0-0.5 0.1-1"/>
				<path id="path19147" class="s19" d="m146.9 324.3c4.2 16.2 13.3 19.7 28.2 19.1 13.9-0.6 24.7-9.7 24.6-21.1-0.1-0.4 0-0.7 0-1"/>
				<path id="path20126" class="s20" d="m139.8 325.8c3.1 14.9 11 26 35.5 24.9 21.2-0.9 31.4-15.3 31.8-27.3 0-0.1 0-0.3 0.1-0.6"/>
				<path id="path20138" class="s21" d="m150.4 323.5c2.2 7.1 4.5 17.6 24.7 16.1 13.2-1 20.2-8.9 20.7-16.2 0-0.9 0-2.7 0.1-3"/>
				<path id="path20140" class="s21" d="m143.3 324.9c4.2 20.1 19.1 23 32.2 22.2 17.8-1.1 27.4-12.1 27.9-23.8 0-0.2 0-1 0.1-1.3"/>
				<path id="path18173" class="s22" d="m129 327.9c4.6 22.5 17.2 34.8 45.6 33.8q0.2 0 0.3 0c37.8-1.5 42.5-29.7 43.9-36.3"/>
				<path id="path21835" class="s23" d="m124.2 328.7l28.4-5.7 40.3-3.2 31 6.4c-5.8 29.5-25.8 40-48.9 40.5-21.9 0.5-32.1-5.1-39.2-12.7-6.8-7.3-10.4-18.6-11.6-25.3z"/>
				<g id="g39880">
					<path id="path22816" class="s24" d="m186 362.6c-0.5-1.7-0.2-4.6 0.3-6.5 1.3 1.4 3.2 3.7 3.7 5.3 0.9 3-3 4-4 1.2z"/>
					<path id="path22874" class="s24" d="m186.6 362.4c-0.5-1.2-0.2-3.4 0.1-4.8 1 1 2.4 2.7 2.8 3.9 0.7 2.2-2.3 3-2.9 0.9z"/>
					<path id="path24814" class="s25" d="m186.5 362.3c0.2-0.2 0.6-0.7 1.3-1 0.7-0.2 1.2 0 1.6 0.1"/>
					<path id="path26759" class="s25" d="m186.4 360.1c0.2-0.3 0.7-0.5 0.9-0.6 0.2-0.1 0.8 0 1 0"/>
				</g>
				<g id="g39886">
					<g id="g42310">
						<path id="path39888" class="s24" d="m181.1 363.4c-0.4-1.8 0.2-4.7 0.8-6.5 1.3 1.5 2.9 4 3.3 5.6 0.6 3.1-3.5 3.8-4.1 0.9z"/>
						<path id="path39890" class="s24" d="m181.6 363.2c-0.3-1.3 0.2-3.4 0.6-4.8 1 1.1 2.2 3 2.4 4.2 0.5 2.3-2.5 2.8-3 0.6z"/>
						<path id="path39892" class="s25" d="m181.6 363.1c0.2-0.2 0.7-0.7 1.4-0.8 0.7-0.2 1.2 0 1.5 0.2"/>
						<path id="path39894" class="s25" d="m181.7 360.9c0.2-0.2 0.7-0.4 0.9-0.5 0.3 0 0.8 0 1 0.1"/>
					</g>
				</g>
				<g id="g39896">
					<path id="path39898" class="s24" d="m191.1 361.2c-0.7-1.6-0.7-4.5-0.4-6.5 1.5 1.3 3.6 3.4 4.2 4.9 1.2 2.9-2.6 4.4-3.8 1.6z"/>
					<path id="path39900" class="s24" d="m191.6 361c-0.6-1.2-0.5-3.4-0.3-4.8 1.1 0.9 2.6 2.5 3.1 3.6 0.9 2.2-1.9 3.2-2.8 1.2z"/>
					<path id="path39902" class="s25" d="m191.6 360.9c0.1-0.2 0.4-0.8 1.1-1.1 0.7-0.3 1.2-0.2 1.6-0.1"/>
					<path id="path39904" class="s25" d="m191.2 358.7c0.2-0.3 0.6-0.6 0.8-0.6 0.3-0.1 0.8-0.2 1-0.1"/>
				</g>
				<g id="g39906">
					<path id="path39908" class="s24" d="m171.2 363.8c-0.1-1.8 1.1-4.5 2.1-6.2 0.9 1.8 2 4.5 2 6.2 0 3.1-4.1 3-4.1 0z"/>
					<path id="path39910" class="s24" d="m171.7 363.8c0-1.3 0.9-3.3 1.6-4.6 0.7 1.3 1.5 3.3 1.5 4.5 0 2.4-3 2.3-3.1 0.1z"/>
					<path id="path39912" class="s25" d="m171.7 363.7c0.3-0.2 0.8-0.6 1.5-0.6 0.8 0 1.2 0.3 1.5 0.6"/>
					<path id="path39914" class="s25" d="m172.3 361.5c0.2-0.2 0.7-0.3 1-0.3 0.2 0 0.7 0.2 0.9 0.3"/>
				</g>
				<g id="g39916">
					<path id="path39918" class="s24" d="m166.4 363.7c0-1.7 1.3-4.4 2.4-6.1 0.8 1.8 1.8 4.6 1.7 6.3-0.1 3.1-4.2 2.8-4.1-0.2z"/>
					<path id="path39920" class="s24" d="m166.9 363.7c0.1-1.3 1-3.3 1.8-4.5 0.6 1.3 1.4 3.4 1.3 4.6-0.1 2.3-3.1 2.1-3.1-0.1z"/>
					<path id="path39922" class="s25" d="m167 363.6c0.2-0.2 0.8-0.5 1.5-0.5 0.7 0 1.1 0.3 1.4 0.6"/>
					<path id="path39924" class="s25" d="m167.6 361.5c0.3-0.2 0.8-0.3 1-0.3 0.3 0 0.7 0.2 0.9 0.4"/>
				</g>
				<g id="g39926">
					<g id="g42304">
						<path id="path39928" class="s24" d="m176.2 363.8c-0.2-1.8 0.6-4.6 1.4-6.4 1.1 1.6 2.5 4.2 2.7 5.9 0.3 3.1-3.7 3.4-4.1 0.5z"/>
						<path id="path39930" class="s24" d="m176.7 363.7c-0.1-1.3 0.5-3.4 1.1-4.7 0.8 1.2 1.8 3.1 2 4.3 0.2 2.3-2.8 2.6-3.1 0.4z"/>
						<path id="path39932" class="s25" d="m176.7 363.6c0.2-0.2 0.7-0.7 1.5-0.7 0.7-0.1 1.1 0.1 1.5 0.3"/>
						<path id="path39934" class="s25" d="m177 361.4c0.3-0.2 0.8-0.4 1-0.4 0.2 0 0.7 0.1 1 0.2"/>
					</g>
				</g>
				<g id="g40118">
					<path id="path40120" class="s24" d="m133.8 346.4c1.4-1 4.3-1.5 6.3-1.6-1 1.7-2.7 4.2-4 5.1-2.7 1.7-4.8-1.8-2.3-3.5z"/>
					<path id="path40122" class="s24" d="m134.1 346.9c1.1-0.8 3.2-1.1 4.7-1.2-0.7 1.2-2 3-3 3.7-2 1.3-3.5-1.3-1.7-2.5z"/>
					<path id="path40124" class="s25" d="m134.2 346.8c0.2 0.1 0.9 0.4 1.3 1 0.4 0.6 0.4 1.1 0.3 1.5"/>
					<path id="path40126" class="s25" d="m136.3 346.1c0.3 0.1 0.6 0.5 0.8 0.7 0.1 0.2 0.2 0.7 0.2 0.9"/>
				</g>
				<g id="g40128">
					<path id="path40130" class="s24" d="m131.5 342.3c1.5-0.8 4.5-1 6.4-1-1.1 1.6-3 3.9-4.5 4.7-2.8 1.4-4.5-2.2-1.9-3.7z"/>
					<path id="path40132" class="s24" d="m131.8 342.8c1.1-0.6 3.3-0.8 4.8-0.7-0.9 1.1-2.3 2.8-3.4 3.4-2.1 1.1-3.4-1.6-1.4-2.7z"/>
					<path id="path40134" class="s25" d="m131.8 342.8c0.3 0.1 0.9 0.4 1.2 1 0.4 0.7 0.3 1.2 0.2 1.6"/>
					<path id="path40136" class="s25" d="m134 342.2c0.3 0.2 0.6 0.6 0.7 0.8 0.2 0.2 0.2 0.7 0.2 1"/>
				</g>
				<g id="g40138">
					<path id="path40140" class="s24" d="m136.5 350.4c1.3-1.2 4.1-2.1 6-2.5-0.6 1.8-1.9 4.5-3.2 5.6-2.3 2.1-5-1.1-2.8-3.1z"/>
					<path id="path40142" class="s24" d="m136.9 350.8c1-0.9 3.1-1.6 4.5-1.9-0.5 1.3-1.5 3.3-2.4 4.1-1.8 1.6-3.7-0.7-2.1-2.2z"/>
					<path id="path40144" class="s25" d="m137 350.7c0.3 0.1 0.9 0.2 1.4 0.8 0.5 0.5 0.6 1 0.6 1.4"/>
					<path id="path40146" class="s25" d="m139 349.7c0.3 0.1 0.7 0.4 0.9 0.5 0.1 0.2 0.3 0.7 0.4 1"/>
				</g>
				<g id="g40148">
					<path id="path40150" class="s24" d="m128.1 333.4c1.7-0.5 4.6-0.1 6.6 0.4-1.5 1.4-3.9 3.2-5.4 3.6-3.1 0.8-4-3.2-1.2-4z"/>
					<path id="path40152" class="s24" d="m128.3 333.9c1.3-0.3 3.4 0 4.8 0.3-1 1-2.8 2.4-4 2.7-2.2 0.6-2.9-2.4-0.8-3z"/>
					<path id="path40154" class="s25" d="m128.4 333.9c0.2 0.2 0.7 0.6 0.9 1.3 0.2 0.7 0.1 1.2-0.1 1.6"/>
					<path id="path40156" class="s25" d="m130.6 333.9c0.3 0.2 0.5 0.6 0.6 0.9 0 0.2 0 0.7-0.1 1"/>
				</g>
				<g id="g40158">
					<path id="path40160" class="s24" d="m127 328.8c1.7-0.4 4.6 0.1 6.5 0.7-1.5 1.3-4 3-5.6 3.3-3.1 0.7-3.8-3.3-0.9-4z"/>
					<path id="path40162" class="s24" d="m127.1 329.3c1.3-0.3 3.4 0.1 4.8 0.5-1.1 1-2.9 2.2-4.1 2.5-2.3 0.5-2.8-2.5-0.7-3z"/>
					<path id="path40164" class="s25" d="m127.2 329.3c0.2 0.2 0.7 0.6 0.9 1.4 0.2 0.7 0 1.1-0.2 1.5"/>
					<path id="path40166" class="s25" d="m129.4 329.3c0.3 0.3 0.5 0.8 0.5 1 0.1 0.2 0 0.7 0 1"/>
				</g>
				<g id="g40168">
					<path id="path40170" class="s24" d="m129.6 338c1.6-0.6 4.6-0.5 6.5-0.2-1.3 1.5-3.5 3.5-5 4.1-3 1.1-4.3-2.8-1.5-3.9z"/>
					<path id="path40172" class="s24" d="m129.8 338.5c1.2-0.5 3.4-0.4 4.9-0.1-1 1-2.6 2.5-3.8 3-2.2 0.8-3.1-2.1-1.1-2.9z"/>
					<path id="path40174" class="s25" d="m129.9 338.5c0.2 0.1 0.8 0.5 1.1 1.2 0.2 0.7 0.1 1.2 0 1.6"/>
					<path id="path40176" class="s25" d="m132.1 338.2c0.3 0.2 0.6 0.7 0.6 0.9 0.1 0.2 0.1 0.7 0.1 1"/>
				</g>
				<g id="g40178">
					<path id="path40180" class="s24" d="m143.7 356.9c0.9-1.5 3.3-3.2 5-4.2-0.1 2-0.6 4.9-1.5 6.3-1.6 2.7-5 0.4-3.5-2.1z"/>
					<path id="path40182" class="s24" d="m144.2 357.1c0.6-1.1 2.4-2.4 3.7-3.1-0.1 1.5-0.5 3.7-1.1 4.7-1.3 2-3.8 0.3-2.6-1.6z"/>
					<path id="path40184" class="s25" d="m144.2 357.1c0.3-0.1 1-0.1 1.6 0.3 0.6 0.4 0.8 0.8 1 1.2"/>
					<path id="path40186" class="s25" d="m145.8 355.5c0.3 0 0.8 0.2 1 0.3 0.2 0.1 0.6 0.5 0.7 0.7"/>
				</g>
				<g id="g40188">
					<path id="path40190" class="s24" d="m139.8 353.9c1.2-1.4 3.8-2.7 5.7-3.3-0.5 1.9-1.4 4.7-2.5 6-2.1 2.3-5.1-0.4-3.2-2.7z"/>
					<path id="path40192" class="s24" d="m140.3 354.2c0.8-1 2.8-2 4.2-2.4-0.4 1.4-1.1 3.5-1.9 4.4-1.5 1.7-3.7-0.3-2.3-2z"/>
					<path id="path40194" class="s25" d="m140.3 354.2c0.3-0.1 1 0 1.6 0.5 0.5 0.5 0.7 1 0.7 1.4"/>
					<path id="path40196" class="s25" d="m142.2 352.9c0.3 0 0.8 0.2 0.9 0.4 0.2 0.2 0.5 0.6 0.5 0.9"/>
				</g>
				<g id="g40198">
					<path id="path40200" class="s24" d="m147.9 359.2c0.7-1.6 2.9-3.5 4.6-4.6 0 1.9-0.1 4.9-0.9 6.4-1.3 2.8-4.9 0.9-3.7-1.8z"/>
					<path id="path40202" class="s24" d="m148.4 359.4c0.5-1.2 2.2-2.6 3.4-3.4 0 1.4-0.1 3.6-0.6 4.7-1 2.1-3.7 0.7-2.8-1.3z"/>
					<path id="path40204" class="s25" d="m148.4 359.4c0.3-0.1 1-0.2 1.6 0.1 0.7 0.3 1 0.7 1.1 1.1"/>
					<path id="path40206" class="s25" d="m149.8 357.6c0.4 0 0.9 0.1 1.1 0.2 0.2 0.1 0.6 0.5 0.7 0.7"/>
				</g>
				<g id="g40208">
					<path id="path40210" class="s24" d="m157 362.4c0.3-1.7 2-4.1 3.3-5.6 0.6 1.9 1.1 4.8 0.7 6.4-0.6 3.1-4.6 2.1-4-0.8z"/>
					<path id="path40212" class="s24" d="m157.5 362.5c0.3-1.3 1.5-3.1 2.5-4.2 0.4 1.4 0.8 3.6 0.5 4.8-0.5 2.3-3.4 1.5-3-0.6z"/>
					<path id="path40214" class="s25" d="m157.5 362.4c0.3-0.1 0.9-0.4 1.6-0.2 0.8 0.1 1.1 0.5 1.4 0.8"/>
					<path id="path40216" class="s25" d="m158.5 360.4c0.3-0.1 0.8-0.1 1.1-0.1 0.2 0.1 0.7 0.3 0.8 0.5"/>
				</g>
				<g id="g40218">
					<path id="path40220" class="s24" d="m152.4 361.1c0.5-1.7 2.4-3.9 3.9-5.2 0.3 1.9 0.6 4.9 0 6.4-0.9 3-4.8 1.6-3.9-1.2z"/>
					<path id="path40222" class="s24" d="m152.9 361.2c0.4-1.2 1.8-2.9 2.9-3.9 0.2 1.5 0.4 3.7 0 4.8-0.7 2.3-3.5 1.2-2.9-0.9z"/>
					<path id="path40224" class="s25" d="m152.9 361.2c0.3-0.2 1-0.4 1.7-0.1 0.7 0.2 1 0.6 1.2 0.9"/>
					<path id="path40226" class="s25" d="m154.1 359.2c0.3 0 0.9 0 1.1 0.1 0.2 0.1 0.6 0.4 0.8 0.6"/>
				</g>
				<g id="g40228">
					<path id="path40230" class="s24" d="m161.6 363.3c0.1-1.8 1.6-4.4 2.7-6 0.8 1.8 1.6 4.7 1.4 6.4-0.3 3.1-4.4 2.5-4.1-0.4z"/>
					<path id="path40232" class="s24" d="m162.1 363.3c0.2-1.3 1.2-3.2 2.1-4.4 0.5 1.3 1.1 3.4 1 4.7-0.3 2.3-3.2 1.9-3.1-0.3z"/>
					<path id="path40234" class="s25" d="m162.2 363.2c0.2-0.2 0.8-0.5 1.5-0.4 0.8 0.1 1.1 0.4 1.4 0.7"/>
					<path id="path40236" class="s25" d="m162.9 361.1c0.3-0.2 0.8-0.2 1.1-0.2 0.2 0 0.7 0.3 0.9 0.4"/>
				</g>
				<g id="g40238">
					<path id="path40240" class="s24" d="m200.3 357.3c-1-1.4-1.6-4.3-1.8-6.3 1.8 0.9 4.3 2.5 5.2 3.9 1.8 2.6-1.6 4.8-3.4 2.4z"/>
					<path id="path40242" class="s24" d="m200.7 356.9c-0.7-1-1.2-3.2-1.3-4.6 1.3 0.7 3.1 1.9 3.8 2.9 1.4 1.9-1.2 3.5-2.5 1.7z"/>
					<path id="path40244" class="s25" d="m200.7 356.9c0.1-0.3 0.3-0.9 0.9-1.4 0.6-0.4 1.1-0.4 1.6-0.4"/>
					<path id="path40246" class="s25" d="m199.9 354.8c0.1-0.3 0.5-0.7 0.7-0.8 0.2-0.2 0.7-0.3 0.9-0.3"/>
				</g>
				<g id="g40248">
					<path id="path40250" class="s24" d="m195.9 359.5c-0.9-1.5-1.2-4.4-1.2-6.4 1.6 1.1 4 2.9 4.8 4.3 1.6 2.8-2 4.7-3.6 2.1z"/>
					<path id="path40252" class="s24" d="m196.4 359.2c-0.7-1.1-0.9-3.2-1-4.7 1.3 0.8 3 2.1 3.6 3.2 1.2 2-1.5 3.4-2.6 1.5z"/>
					<path id="path40254" class="s25" d="m196.4 359.2c0-0.3 0.3-0.9 1-1.3 0.6-0.3 1.1-0.3 1.5-0.2"/>
					<path id="path40256" class="s25" d="m195.7 357c0.2-0.3 0.6-0.6 0.8-0.7 0.2-0.2 0.7-0.3 0.9-0.2"/>
				</g>
				<g id="g40258">
					<g id="g43287">
						<path id="path40260" class="s24" d="m204.5 354.5c-1.2-1.2-2.2-4-2.7-5.9 1.8 0.6 4.6 1.8 5.7 3 2.2 2.3-0.9 5-3 2.9z"/>
						<path id="path40262" class="s24" d="m204.9 354.1c-0.9-0.9-1.7-3-2-4.4 1.3 0.5 3.4 1.4 4.2 2.3 1.6 1.7-0.7 3.7-2.2 2.1z"/>
						<path id="path40264" class="s25" d="m204.9 354.1c0-0.3 0.1-1 0.6-1.5 0.6-0.5 1.1-0.6 1.5-0.6"/>
						<path id="path40266" class="s25" d="m203.7 352.1c0.1-0.3 0.4-0.7 0.6-0.9 0.2-0.2 0.6-0.4 0.9-0.4"/>
					</g>
				</g>
				<g id="g40298">
					<path id="path40300" class="s24" d="m211.8 347.5c-1.6-0.8-3.3-3.2-4.3-4.9 2 0.1 4.9 0.5 6.3 1.3 2.8 1.7 0.6 5.1-2 3.6z"/>
					<path id="path40302" class="s24" d="m212 347c-1.1-0.6-2.4-2.4-3.1-3.6 1.4 0 3.6 0.4 4.6 1 2.1 1.2 0.4 3.7-1.5 2.6z"/>
					<path id="path40304" class="s25" d="m212 347c-0.1-0.3-0.2-1 0.2-1.6 0.4-0.6 0.8-0.9 1.2-1"/>
					<path id="path40306" class="s25" d="m210.3 345.4c0-0.3 0.2-0.8 0.3-1 0.1-0.2 0.5-0.5 0.8-0.7"/>
				</g>
				<g id="g40308">
					<path id="path40310" class="s24" d="m208.4 351.3c-1.4-1.1-2.8-3.7-3.5-5.6 1.9 0.4 4.8 1.3 6.1 2.3 2.4 2-0.3 5.1-2.6 3.3z"/>
					<path id="path40312" class="s24" d="m208.7 350.8c-1-0.8-2.1-2.7-2.6-4.1 1.4 0.3 3.5 1 4.5 1.7 1.8 1.5-0.2 3.8-1.9 2.4z"/>
					<path id="path40314" class="s25" d="m208.6 350.8c0-0.3 0.1-1 0.5-1.6 0.5-0.5 1-0.7 1.4-0.8"/>
					<path id="path40316" class="s25" d="m207.3 349c0-0.3 0.2-0.8 0.4-1 0.2-0.2 0.6-0.4 0.8-0.5"/>
				</g>
				<g id="g40318">
					<path id="path40320" class="s24" d="m214.4 343.5c-1.5-0.8-3.4-3.1-4.4-4.8 1.9 0 4.9 0.3 6.4 1.1 2.8 1.5 0.7 5-2 3.7z"/>
					<path id="path40322" class="s24" d="m214.7 343c-1.2-0.6-2.6-2.3-3.3-3.6 1.4 0 3.6 0.3 4.7 0.9 2 1.1 0.5 3.7-1.4 2.7z"/>
					<path id="path40324" class="s25" d="m214.6 342.9c-0.1-0.3-0.1-0.9 0.2-1.6 0.4-0.6 0.8-0.9 1.2-1"/>
					<path id="path40326" class="s25" d="m212.9 341.4c0-0.3 0.1-0.8 0.3-1 0.1-0.2 0.5-0.6 0.7-0.7"/>
				</g>
				<g id="g40328">
					<path id="path40330" class="s24" d="m218.4 334.8c-1.7-0.5-3.9-2.4-5.2-3.9 1.9-0.3 4.9-0.5 6.5 0 3 1 1.6 4.8-1.3 3.9z"/>
					<path id="path40332" class="s24" d="m218.5 334.3c-1.2-0.4-2.8-1.8-3.8-2.9 1.4-0.2 3.6-0.4 4.8 0 2.2 0.7 1.2 3.5-1 2.9z"/>
					<path id="path40334" class="s25" d="m218.5 334.3c-0.1-0.3-0.3-0.9-0.1-1.6 0.2-0.8 0.6-1.1 1-1.3"/>
					<path id="path40336" class="s25" d="m216.6 333.1c-0.1-0.3-0.1-0.8 0-1.1 0.1-0.2 0.4-0.6 0.6-0.8"/>
				</g>
				<g id="g40338">
					<path id="path40340" class="s24" d="m216.8 339.2c-1.7-0.6-3.7-2.8-4.9-4.3 1.9-0.2 4.9-0.2 6.4 0.5 2.9 1.2 1.2 4.9-1.5 3.8z"/>
					<path id="path40342" class="s24" d="m216.9 338.7c-1.2-0.5-2.7-2.1-3.6-3.2 1.4-0.2 3.7-0.1 4.8 0.3 2.1 0.9 0.9 3.7-1.2 2.9z"/>
					<path id="path40344" class="s25" d="m216.9 338.6c-0.1-0.2-0.3-0.9 0-1.6 0.3-0.7 0.7-0.9 1.1-1.1"/>
					<path id="path40346" class="s25" d="m215.1 337.3c-0.1-0.3 0-0.8 0.1-1 0.1-0.3 0.4-0.7 0.6-0.8"/>
				</g>
				<g id="g40348">
					<path id="path40350" class="s24" d="m219.9 330.3c-1.7-0.3-4.1-2.1-5.6-3.4 1.9-0.5 4.8-1 6.4-0.7 3.1 0.7 2.2 4.6-0.8 4.1z"/>
					<path id="path40352" class="s24" d="m220 329.7c-1.3-0.2-3.1-1.5-4.2-2.4 1.4-0.4 3.6-0.8 4.8-0.6 2.3 0.5 1.6 3.4-0.6 3z"/>
					<path id="path40354" class="s25" d="m219.9 329.7c-0.1-0.2-0.4-0.9-0.2-1.6 0.1-0.7 0.5-1.1 0.8-1.3"/>
					<path id="path40356" class="s25" d="m217.9 328.8c-0.1-0.4-0.1-0.9-0.1-1.1 0.1-0.3 0.4-0.7 0.5-0.9"/>
				</g>
			</g>
			<path id="path8094" fill-rule="evenodd" class="s26" d="m186.9 302.8c3.3 12.7 10.4 20.2 2 28.3-2.8 2.7-6.5 5.4-13.7 5.8-21.2 1.4-21-9-25.9-27.7-3.4 1.3-19.6-2-19.1-5.8 0.2-0.8 0.4-2.2 0.6-3.8-0.1-1.6-0.7-2.2-1.8-2.3-0.6 0.2-1.6-2.8 0.2-3.3-1.7 0.2-1.8-1.9-1.5-2.7 0.3-0.9 0.4-2 0.1-2.7-3.5 0.1-5.8-1.9-4.6-5.9 1.9-3.5 6.2-10.3 8.2-14.7-0.1-1.6 0.7-4.6 1.8-7.1 1.4-1.2 35.5-12.8 35 4.1l3.2 0.3 4.6 0.4c10 6.7 11.1 7.3 10.9 37.1z"/>
			<path id="path2224" fill-rule="evenodd" class="s27" d="m25.7 886.8l26.4-49h173.6v49z"/>
			<path id="path2360" fill-rule="evenodd" class="s28" d="m57.1 845.5l160.3-0.1v33.8h-177.1z"/>
			<path id="path8096" class="s29" d="m164.5 274.1c0.4 25.2-9.6 35.7-32.7 32.1"/>
			<path id="path8098" fill-rule="evenodd" class="s30" d="m159.2 268.2c-1.9-0.4-3.9-0.9-5.6-1.8-3.2-1.8-5.7-4.3-10.2-5-3.6-0.4-6.7 0.1-8.8 1.1-2 1-1 2.6 0.6 1.9 1.6-0.7 4.6-1.4 7.5-1 2.9 0.5 7.4 3.6 10.2 4.9 2.8 1.4 4.3 1.6 6.3 1.9 0.3-0.7 0.3-1.4 0-2z"/>
			<g id="g17946">
				<path id="path17944" fill-rule="evenodd" class="s31" d="m128.4 287.2c-1.6-1.1-2.5-1.1-2.6-0.3-0.2 1.3 1.4 0.6 2.5 0.5"/>
				<path id="path8112" class="s32" d="m130.2 283.4c3.6 2.6 1.8 4.5 0.2 4.5-1.6 0-4.1-2.6-4.6-1.1-0.5 1.6 2.7 0.9 2.6 0.5"/>
			</g>
			<path id="path8114" class="s33" d="m136.5 293.7c-0.2 0-7.4 0.4-7.4 0.4"/>
			<path id="path16971" class="s33" d="m127.6 291.4c4.5-1.3 7.4 1.4 9.7 1.8"/>
			<path id="path16973" class="s33" d="m128.8 297.1c3.6-0.3 6.9-2.5 8.4-2.7"/>
			<path id="path7330" fill-rule="evenodd" class="s34" d="m141.4 309.1c-3.3-0.4-10.9-2.5-11.3-5-3.6 18.5-1.3 42.5-22.3 40.2-0.4 0-0.8 0-1.2 0.2-2.9 2.7-1.4 8.7 9.5 6.5 18.9-3.8 21.3-30.8 25.3-41.9z"/>
			<g id="g9418">
				<path id="path8441" class="s35" d="m81.5 838.2v6.9"/>
				<path id="path9412" class="s35" d="m84.5 838.2v6.9"/>
				<path id="path9414" class="s35" d="m87.6 838.2v6.9"/>
				<path id="path9416" class="s35" d="m91 838.2v6.9"/>
			</g>
			<g id="g9424">
				<path id="path9426" class="s35" d="m102.3 838.2v6.9"/>
				<path id="path9428" class="s35" d="m105.3 838.2v6.9"/>
				<path id="path9430" class="s35" d="m108.4 838.2v6.9"/>
				<path id="path9432" class="s35" d="m111.8 838.2v6.9"/>
			</g>
			<g id="g9434">
				<path id="path9436" class="s35" d="m123.7 838.2v6.9"/>
				<path id="path9438" class="s35" d="m126.7 838.2v6.9"/>
				<path id="path9440" class="s35" d="m129.8 838.2v6.9"/>
				<path id="path9442" class="s35" d="m133.1 838.2v6.9"/>
			</g>
			<g id="g9444">
				<path id="path9446" class="s35" d="m143.9 838.2v6.9"/>
				<path id="path9448" class="s35" d="m146.9 838.2v6.9"/>
				<path id="path9450" class="s35" d="m150 838.2v6.9"/>
				<path id="path9452" class="s35" d="m153.3 838.2v6.9"/>
			</g>
			<g id="g9454">
				<path id="path9456" class="s35" d="m163.9 838.2v6.9"/>
				<path id="path9458" class="s35" d="m166.8 838.2v6.9"/>
				<path id="path9460" class="s35" d="m170 838.2v6.9"/>
				<path id="path9462" class="s35" d="m173.3 838.2v6.9"/>
			</g>
			<g id="g9464">
				<path id="path9466" class="s35" d="m183.4 838.2v6.9"/>
				<path id="path9468" class="s35" d="m186.4 838.2v6.9"/>
				<path id="path9470" class="s35" d="m189.5 838.2v6.9"/>
				<path id="path9472" class="s35" d="m192.8 838.2v6.9"/>
			</g>
			<g id="g9474">
				<path id="path9476" class="s35" d="m42.8 879.5v6.9"/>
				<path id="path9478" class="s35" d="m45.8 879.5v6.9"/>
				<path id="path9480" class="s35" d="m48.9 879.5v6.9"/>
				<path id="path9482" class="s35" d="m52.2 879.5v6.9"/>
			</g>
			<g id="g9484">
				<path id="path9486" class="s35" d="m45 852.5l6 3.2"/>
				<path id="path9488" class="s35" d="m46.4 849.8l6.1 3.3"/>
				<path id="path9490" class="s35" d="m47.9 847.1l6 3.3"/>
				<path id="path9492" class="s35" d="m49.5 844.2l6 3.2"/>
			</g>
			<g id="g9494">
				<path id="path9496" class="s35" d="m33.4 873.2l7.2 3.8"/>
				<path id="path9498" class="s35" d="m35.1 870.3l7.1 3.7"/>
				<path id="path9500" class="s35" d="m36.8 867.1l7.2 3.8"/>
				<path id="path9502" class="s35" d="m38.7 863.8l7.1 3.7"/>
			</g>
			<g id="g9514">
				<path id="path9516" class="s35" d="m63.5 879.5v6.9"/>
				<path id="path9518" class="s35" d="m66.4 879.5v6.9"/>
				<path id="path9520" class="s35" d="m69.6 879.5v6.9"/>
				<path id="path9522" class="s35" d="m72.9 879.5v6.9"/>
			</g>
			<g id="g9534">
				<path id="path9536" class="s35" d="m59.9 838.2v6.9"/>
				<path id="path9538" class="s35" d="m62.9 838.2v6.9"/>
				<path id="path9540" class="s35" d="m66 838.2v6.9"/>
				<path id="path9542" class="s35" d="m69.3 838.2v6.9"/>
			</g>
			<g id="g9554">
				<path id="path9546" class="s35" d="m84.4 879.5v6.9"/>
				<path id="path9548" class="s35" d="m87.4 879.5v6.9"/>
				<path id="path9550" class="s35" d="m90.5 879.5v6.9"/>
				<path id="path9552" class="s35" d="m93.8 879.5v6.9"/>
			</g>
			<g id="g9580">
				<path id="path9582" class="s35" d="m147.3 879.5v6.9"/>
				<path id="path9584" class="s35" d="m150.3 879.5v6.9"/>
				<path id="path9586" class="s35" d="m153.4 879.5v6.9"/>
				<path id="path9588" class="s35" d="m156.8 879.5v6.9"/>
			</g>
			<g id="g9590">
				<path id="path9592" class="s35" d="m167.1 879.5v6.9"/>
				<path id="path9594" class="s35" d="m170 879.5v6.9"/>
				<path id="path9596" class="s35" d="m173.2 879.5v6.9"/>
				<path id="path9598" class="s35" d="m176.5 879.5v6.9"/>
			</g>
			<g id="g9600">
				<path id="path9602" class="s35" d="m186.1 879.5v6.9"/>
				<path id="path9604" class="s35" d="m189.1 879.5v6.9"/>
				<path id="path9606" class="s35" d="m192.2 879.5v6.9"/>
				<path id="path9608" class="s35" d="m195.6 879.5v6.9"/>
			</g>
			<g id="g9610">
				<path id="path9612" class="s35" d="m225 867.2h-6.9"/>
				<path id="path9614" class="s35" d="m225 870.1h-6.9"/>
				<path id="path9616" class="s35" d="m225 873.3h-6.9"/>
				<path id="path9618" class="s35" d="m225 876.6h-6.9"/>
			</g>
			<g id="g9620">
				<path id="path9622" class="s35" d="m225 846.5h-6.9"/>
				<path id="path9624" class="s35" d="m225 849.5h-6.9"/>
				<path id="path9626" class="s35" d="m225 852.6h-6.9"/>
				<path id="path9628" class="s35" d="m225 855.9h-6.9"/>
			</g>
			<g id="g9560">
				<path id="path9562" class="s35" d="m105.8 879.5v6.9"/>
				<path id="path9564" class="s35" d="m108.7 879.5v6.9"/>
				<path id="path9566" class="s35" d="m111.9 879.5v6.9"/>
				<path id="path9568" class="s35" d="m115.2 879.5v6.9"/>
			</g>
			<g id="g9570">
				<path id="path9572" class="s35" d="m126.4 879.5v6.9"/>
				<path id="path9574" class="s35" d="m129.4 879.5v6.9"/>
				<path id="path9576" class="s35" d="m132.5 879.5v6.9"/>
				<path id="path9578" class="s35" d="m135.9 879.5v6.9"/>
			</g>
			<g id="g10379">
				<path id="path10381" fill-rule="evenodd" class="s36" d="m346.6 232.4l24.6-0.1-0.5 15.9-24.8-0.5z"/>
				<path id="path10383" fill-rule="evenodd" class="s37" d="m346.6 234.1l24.4 0.4-0.1 4.7-24.5-0.3z"/>
				<path id="path10385" fill-rule="evenodd" class="s37" d="m346.3 240.6l24.6 0.6-0.2 5-24.6-0.4z"/>
			</g>
			<path id="path3037" fill-rule="evenodd" class="s38" d="m346.7 232.3l-0.2-2.8c-7.5-9.5-8.5-24.7-2.5-40.5 0.1-0.4 0.8-0.7 1-1.2 1.1-2.2 2.2-5.8 2.9-9.5 7.3-1.6 0.7 22.1 0.4 34.4 4.2-38.1 5.7-48.5 8.6-48.4 2.4 0.1 2.3 2.6 0.1 27.5 2.7-29.9 4-32.3 5.9-32.2 1.9 0.1 3.7 2.5-0.1 32.2 3.4-29 4.3-33.2 6.2-32.9 1.7 0.2 2.8 1.6 0 34.7 1.7-26 2.7-28 4.3-27.7 1.7 0.4 2.5 2.1 3 28.4-0.6 12.6-1.3 25.3-5.2 37.9z"/>
			<g id="g4032">
				<path id="path4034" class="s35" d="m203.3 838.2v6.9"/>
				<path id="path4036" class="s35" d="m206.3 838.2v6.9"/>
				<path id="path4038" class="s35" d="m209.4 838.2v6.9"/>
				<path id="path4040" class="s35" d="m212.8 838.2v6.9"/>
			</g>
			<g id="g4042">
				<path id="path4044" class="s35" d="m206.1 879.5v6.9"/>
				<path id="path4046" class="s35" d="m209.1 879.5v6.9"/>
				<path id="path4048" class="s35" d="m212.2 879.5v6.9"/>
				<path id="path4050" class="s35" d="m215.5 879.5v6.9"/>
			</g>
			<path id="path6038" fill-rule="evenodd" class="s39" d="m447.8 318.1c1.7 5.8 0.2 12.3-2.1 17.7-5.1-3.3-9.4-8.1-12.1-13.9-0.1-0.2-0.3-0.1-0.2 0.1 0.9 6.2-0.1 11.9-2.3 17.4-5.1-3.3-9.5-8.6-12.2-14.4-0.1-0.3-0.4-0.3-0.2 0.1 1.5 6.1 0.2 11.7-2 17.2-5.2-3.4-10.1-6.2-12.2-14.2l-32-191.7-1.1-3.9v0.5l-6.1-3.9c2.1-4 5.4-9.7 7.1-10.9 1.7-1.3 5.9-1.1 8.1 0.4 2.3 1.4 4.9 11.1 6.8 16.6z"/>
			<path id="path6040" class="s40" d="m371.8 119.2l8.9 0.2"/>
			<path id="path6042" class="s40" d="m372.1 134.7l14.3-2.3"/>
			<path id="path6044" class="s40" d="m372.9 137.8l14.1-3.1"/>
			<path id="path6046" class="s40" d="m365.9 129l19.6 2.1"/>
			<path id="path6048" class="s40" d="m370.4 120.9l12 0.5"/>
			<path id="path6050" class="s40" d="m366.4 127.3l18.4 1.2"/>
			<path id="path6052" class="s40" d="m367.8 124.9l16.1 0.7"/>
			<path id="path6054" class="s40" d="m369.1 122.8l14.2 0.6"/>
			<path id="path8521" fill-rule="evenodd" class="s9" d="m404.6 315.4l1.8 10.3 9.6-1.6-2.1-10.3-5.7-3.9z"/>
			<path id="path6210" class="s41" d="m409.6 316.8c-2 3.3-3.7 7.8-2.6 11.9 1.2 4.6 5 8.1 8.6 10.6 1.6-3.7 2.5-8.1 1.4-12.2-1.2-4.6-4-7.7-7.4-10.3z"/>
			<path id="path7236" fill-rule="evenodd" class="s42" d="m406.7 327.5l-20.5-116.4m4.6-1l25.7 115.2"/>
			<g id="g7488">
				<path id="path7289" class="s43" d="m404.7 315.8l3.5-6 5.7 4.1"/>
				<path id="path7291" class="s43" d="m403.8 310.5l3.4-5.8 5.6 3.9"/>
				<path id="path7293" class="s43" d="m402.9 305.1l3.3-5.6 5.4 3.8"/>
				<path id="path7295" class="s43" d="m401.9 299.8l3.2-5.5 5.2 3.6"/>
				<path id="path7297" class="s43" d="m400.9 294.4l3.2-5.4 5.1 3.7"/>
				<path id="path7299" class="s43" d="m400 289.1l3.1-5.2 5 3.6"/>
				<path id="path7301" class="s43" d="m399.1 283.8l2.9-5 4.9 3.5"/>
				<path id="path7303" class="s43" d="m398.2 278.4l2.8-4.8 4.7 3.4"/>
				<path id="path7305" class="s43" d="m397.2 273.1l2.8-4.7 4.5 3.2"/>
				<path id="path7307" class="s43" d="m396.2 267.7l2.8-4.6 4.4 3.1"/>
				<path id="path7309" class="s43" d="m395.3 262.4l2.6-4.4 4.2 3.1"/>
				<path id="path7311" class="s43" d="m394.4 257.1l2.5-4.2 4.2 2.9"/>
				<path id="path7313" class="s43" d="m393.4 251.7l2.4-4 4 2.8"/>
				<path id="path7315" class="s43" d="m392.5 246.2l2.3-3.8 3.8 2.7"/>
				<path id="path7317" class="s43" d="m391.6 241l2.2-3.7 3.7 2.6"/>
				<path id="path7319" class="s43" d="m390.6 235.6l2.1-3.6 3.5 2.5"/>
				<path id="path7321" class="s43" d="m389.7 230.1l2-3.3 3.3 2.3"/>
				<path id="path7323" class="s43" d="m388.7 224.9l2-3.2 3.2 2.2"/>
				<path id="path7325" class="s43" d="m387.8 219.6l1.8-3.1 3.1 2.1"/>
				<path id="path7327" class="s43" d="m386.8 214.2l1.8-2.8 2.9 2"/>
			</g>
			<g id="g8615">
				<path id="path8571" fill-rule="evenodd" class="s42" d="m421.4 324.6l-26-115.3m4.5-1.2l31.2 113.9"/>
				<g id="g8573">
					<path id="path8575" class="s43" d="m418.8 313l3.3-6.1 5.8 3.8"/>
					<path id="path8577" class="s43" d="m417.6 307.7l3.2-5.9 5.7 3.7"/>
					<path id="path8579" class="s43" d="m416.5 302.4l3-5.7 5.6 3.5"/>
					<path id="path8581" class="s43" d="m415.2 297.1l3-5.6 5.4 3.4"/>
					<path id="path8583" class="s43" d="m414 291.9l2.9-5.6 5.3 3.4"/>
					<path id="path8585" class="s43" d="m412.9 286.5l2.8-5.3 5.1 3.4"/>
					<path id="path8587" class="s43" d="m411.7 281.3l2.7-5.2 5 3.3"/>
					<path id="path8589" class="s43" d="m410.5 276l2.6-5 4.9 3.2"/>
					<path id="path8591" class="s43" d="m409.3 270.7l2.5-4.9 4.7 3.1"/>
					<path id="path8593" class="s43" d="m408 265.3l2.6-4.7 4.5 2.9"/>
					<path id="path8595" class="s43" d="m406.9 260.1l2.4-4.5 4.3 2.8"/>
					<path id="path8597" class="s43" d="m405.7 254.8l2.3-4.3 4.3 2.7"/>
					<path id="path8599" class="s43" d="m404.5 249.5l2.2-4.1 4.2 2.6"/>
					<path id="path8601" class="s43" d="m403.3 244.1l2.1-3.9 4 2.5"/>
					<path id="path8603" class="s43" d="m402.2 238.9l2-3.8 3.8 2.4"/>
					<path id="path8605" class="s43" d="m400.9 233.5l2-3.6 3.6 2.3"/>
					<path id="path8607" class="s43" d="m399.7 228.1l1.9-3.3 3.4 2.1"/>
					<path id="path8609" class="s43" d="m398.5 223l1.8-3.3 3.4 2.1"/>
					<path id="path8611" class="s43" d="m397.3 217.7l1.7-3.2 3.2 2"/>
					<path id="path8613" class="s43" d="m396.1 212.3l1.7-2.8 3 1.8"/>
				</g>
			</g>
			<path id="path8639" fill-rule="evenodd" class="s42" d="m436.4 321.1l-32-113.9m4.5-1.4l36.8 112.2"/>
			<g id="g8641">
				<path id="path8643" class="s43" d="m433.1 309.7l2.9-6.3 6.1 3.5"/>
				<path id="path8645" class="s43" d="m431.6 304.5l2.9-6.1 5.9 3.4"/>
				<path id="path8647" class="s43" d="m430.2 299.2l2.8-5.9 5.7 3.3"/>
				<path id="path8649" class="s43" d="m428.7 294l2.7-5.8 5.5 3.2"/>
				<path id="path8651" class="s43" d="m427.2 288.8l2.7-5.7 5.4 3.1"/>
				<path id="path8653" class="s43" d="m425.8 283.6l2.5-5.5 5.4 3.1"/>
				<path id="path8655" class="s43" d="m424.4 278.4l2.4-5.3 5.2 3"/>
				<path id="path8657" class="s43" d="m422.9 273.1l2.4-5.1 5 2.9"/>
				<path id="path8659" class="s43" d="m421.4 267.9l2.3-5 4.9 2.8"/>
				<path id="path8661" class="s43" d="m419.9 262.6l2.3-4.8 4.7 2.6"/>
				<path id="path8663" class="s43" d="m418.5 257.4l2.2-4.6 4.5 2.6"/>
				<path id="path8665" class="s43" d="m417.1 252.2l2-4.4 4.5 2.5"/>
				<path id="path8667" class="s43" d="m415.6 247l2-4.3 4.3 2.5"/>
				<path id="path8669" class="s43" d="m414.2 241.6l1.9-4 4 2.3"/>
				<path id="path8671" class="s43" d="m412.7 236.5l1.8-3.9 4 2.2"/>
				<path id="path8673" class="s43" d="m411.2 231.2l1.8-3.7 3.7 2.1"/>
				<path id="path8675" class="s43" d="m409.8 225.9l1.6-3.5 3.6 2"/>
				<path id="path8677" class="s43" d="m408.3 220.8l1.6-3.4 3.5 1.9"/>
				<path id="path8679" class="s43" d="m406.9 215.6l1.5-3.3 3.3 1.8"/>
				<path id="path8681" class="s43" d="m405.4 210.3l1.5-3 3.1 1.7"/>
			</g>
			<path id="path8525" fill-rule="evenodd" class="s9" d="m433.4 309.6l2.7-5.8 5.7 3.1 3.8 10.9-9.2 2.9z"/>
			<path id="path8523" fill-rule="evenodd" class="s9" d="m418.7 312.9l3.4-5.7 5.6 3.4 2.8 9.7-9.3 2.6z"/>
			<path id="path8683" class="s41" d="m424.1 313.4c-1.9 3.3-3.7 7.8-2.6 11.9 1.2 4.6 5 8.1 8.7 10.6 1.5-3.7 2.5-8.1 1.4-12.3-1.2-4.5-4-7.6-7.5-10.2z"/>
			<path id="path8685" class="s41" d="m444.7 332.6c2-3.4 3.1-7.9 2-12.1-1.2-4.6-5-8.1-8.7-10.5-1.5 3.6-2.5 8.1-1.4 12.2 1.2 4.6 4.7 7.7 8.1 10.4z"/>
			<path id="path8687" class="s43" d="m393.1 209.8l25.6 114.8"/>
			<path id="path8689" class="s43" d="m433.5 321.8l-31.3-114.2"/>
			<path id="path16643" fill-rule="evenodd" class="s44" d="m385.6 210.2l-0.2-7.2 4.7-1 2.7 6.6z"/>
			<path id="path16669" class="s43" d="m401.7 179.2l-21.3 4.6"/>
			<path id="path16645" class="s43" d="m385.2 211.3l25.1-5.8"/>
			<path id="path16647" class="s43" d="m382.1 193.5l22.8-5.1"/>
			<path id="path16649" class="s43" d="m383.6 202.5l24.1-5.3"/>
			<path id="path16651" fill-rule="evenodd" class="s44" d="m393.7 208.4l-0.2-7.2 4.7-1 2.7 6.6z"/>
			<path id="path16653" fill-rule="evenodd" class="s44" d="m401.9 206.6l-0.2-7.2 4.7-1 2.7 6.6z"/>
			<path id="path16655" fill-rule="evenodd" class="s44" d="m384.6 201.3l-0.4-7.4 4.2-0.9 2.6 6.9z"/>
			<path id="path16657" fill-rule="evenodd" class="s44" d="m392.2 199.6l-0.4-7.4 4.3-1 2.6 7z"/>
			<path id="path16659" fill-rule="evenodd" class="s44" d="m399.7 198l-0.3-7.4 4.4-1 2.6 6.9z"/>
			<path id="path16661" fill-rule="evenodd" class="s44" d="m382.9 192.2l-0.5-7.5 4-0.9 2.6 7.1z"/>
			<path id="path16663" fill-rule="evenodd" class="s44" d="m390.2 190.6l-0.5-7.5 3.9-0.8 2.5 7z"/>
			<path id="path16665" fill-rule="evenodd" class="s44" d="m397.4 189l-0.5-7.5 4.1-0.9 2.6 7.1z"/>
			<path id="path17783" class="s43" d="m375.5 152.5l16.3-3.7"/>
			<path id="path17785" class="s40" d="m382.3 173.5c-1 1.3-1.9 3-1.5 4.6 0.4 1.7 2 3 3.7 3.9 0.8-1.4 1.7-3.2 1.3-4.8-0.5-1.7-2-2.7-3.5-3.7z"/>
			<path id="path17787" class="s43" d="m376.5 152.4l4.4 26.2"/>
			<path id="path17789" class="s43" d="m379.9 151.8l5.9 25.6"/>
			<path id="path17791" class="s40" d="m388.9 172.2c-1 1.3-2 3.1-1.6 4.6 0.4 1.8 2.2 3 3.8 3.8 0.8-1.4 1.6-3.1 1.2-4.7-0.4-1.7-1.8-2.8-3.4-3.7z"/>
			<path id="path17793" class="s40" d="m397.2 179.2c1-1.3 1.9-3.1 1.5-4.7-0.4-1.7-2.3-2.9-3.9-3.8-0.9 1.4-1.7 3.2-1.3 4.8 0.4 1.7 2.2 2.8 3.7 3.7z"/>
			<path id="path17795" class="s43" d="m387.4 177.3l-5.4-26.1"/>
			<path id="path17797" class="s43" d="m392.4 176.5l-6.7-26.1"/>
			<path id="path17799" class="s43" d="m393.6 176.1c0.1-0.3-6.3-26.1-6.3-26.1"/>
			<path id="path17801" class="s43" d="m398.8 174.8l-8.2-25.6"/>
			<g id="g17803">
				<path id="path17805" class="s43" d="m380 173.1l1.9-3.3 2.8 2.4"/>
				<path id="path17807" class="s43" d="m379.5 170.1l1.7-3.3 2.8 2.4"/>
				<path id="path17809" class="s43" d="m378.9 167.2l1.7-3.4 2.6 2.5"/>
				<path id="path17811" class="s43" d="m378.6 164.2l1.3-3.3 2.6 2.4"/>
				<path id="path17813" class="s43" d="m378 161.2l1.3-3.3 2.5 2.6"/>
				<path id="path17815" class="s43" d="m377.6 158.3l1-3.3 2.6 2.6"/>
				<path id="path17817" class="s43" d="m377 155.3l1.1-3.1 2.4 2.5"/>
			</g>
			<g id="g17819">
				<path id="path17821" class="s43" d="m386.3 172.3l1.7-3.4 3 2.1"/>
				<path id="path17823" class="s43" d="m385.7 169.4l1.6-3.5 3 2.4"/>
				<path id="path17825" class="s43" d="m385.2 166.4l1.4-3.4 2.9 2.5"/>
				<path id="path17827" class="s43" d="m384.4 163.5l1.6-3.4 2.8 2.3"/>
				<path id="path17829" class="s43" d="m383.9 160.4l1.4-3.3 2.8 2.4"/>
				<path id="path17831" class="s43" d="m383.4 157.5l1.3-3.3 2.5 2.4"/>
				<path id="path17833" class="s43" d="m382.8 154.5l1.2-3.2 2.6 2.5"/>
			</g>
			<g id="g17835">
				<path id="path17837" class="s43" d="m392.5 170.7l1.6-3.5 3.1 2.2"/>
				<path id="path17839" class="s43" d="m391.8 167.8l1.4-3.6 2.9 2.5"/>
				<path id="path17841" class="s43" d="m391 164.8l1.3-3.5 3 2.3"/>
				<path id="path17843" class="s43" d="m390.3 161.9l1.2-3.4 2.9 2.2"/>
				<path id="path17845" class="s43" d="m389.6 158.9l1-3.3 2.8 2.3"/>
				<path id="path17847" class="s43" d="m388.9 156l0.9-3.3 2.5 2.3"/>
				<path id="path17849" class="s43" d="m388.1 153.1l1-3.4 2.5 2.5"/>
			</g>
			<path id="path17885" class="s36" d="m386.9 138.1c-0.2 1-1.1 1.6-2.1 1.5-1-0.2-1.7-1.1-1.5-2.1 0.1-1 1.1-1.7 2.1-1.5 1 0.1 1.7 1.1 1.5 2.1z"/>
			<path id="path17887" class="s36" d="m388.3 142.6c-0.2 1-1.2 1.7-2.2 1.6-1.1-0.2-1.8-1.2-1.7-2.3 0.2-1.1 1.2-1.8 2.3-1.6 1.1 0.2 1.8 1.2 1.6 2.3z"/>
			<path id="path17889" class="s36" d="m389.9 147.1c-0.2 1.1-1.2 1.8-2.3 1.7-1-0.2-1.7-1.2-1.6-2.3 0.2-1.1 1.2-1.8 2.3-1.6 1.1 0.2 1.8 1.2 1.6 2.2z"/>
			<path id="path17892" class="s36" d="m377.5 140.4c-0.2 0.9-1.3 1.5-2.2 1.2-1-0.2-1.6-1.3-1.3-2.2 0.3-1 1.3-1.6 2.3-1.3 0.9 0.3 1.5 1.3 1.2 2.3z"/>
			<path id="path17894" class="s36" d="m378.6 145c-0.3 1-1.4 1.6-2.4 1.3-1.1-0.3-1.7-1.3-1.4-2.4 0.3-1 1.4-1.6 2.4-1.4 1.1 0.3 1.7 1.4 1.4 2.5z"/>
			<path id="path17896" class="s36" d="m379.7 149.7c-0.3 1-1.4 1.7-2.4 1.4-1.1-0.3-1.7-1.4-1.4-2.5 0.3-1 1.4-1.6 2.4-1.3 1.1 0.3 1.7 1.4 1.4 2.4z"/>
			<path id="path17898" class="s36" d="m382.1 139.3c-0.2 1-1.2 1.6-2.2 1.4-1-0.2-1.6-1.2-1.4-2.2 0.2-1 1.1-1.6 2.1-1.4 1 0.2 1.7 1.2 1.5 2.2z"/>
			<path id="path17900" class="s36" d="m383.5 143.9c-0.2 1-1.2 1.7-2.3 1.5-1-0.2-1.7-1.3-1.5-2.3 0.2-1.1 1.3-1.8 2.3-1.6 1.1 0.3 1.8 1.3 1.5 2.4z"/>
			<path id="path17902" class="s36" d="m384.8 148.5c-0.2 1.1-1.3 1.8-2.3 1.5-1.1-0.2-1.8-1.2-1.6-2.3 0.3-1 1.3-1.7 2.4-1.5 1 0.2 1.7 1.3 1.5 2.3z"/>
			<g id="g34819">
				<path id="path34821" class="s43" d="m404.7 315.8l3.5-6 5.7 4.1"/>
				<path id="path34823" class="s43" d="m403.8 310.5l3.4-5.8 5.6 3.9"/>
				<path id="path34825" class="s43" d="m402.9 305.1l3.3-5.6 5.4 3.8"/>
				<path id="path34827" class="s43" d="m401.9 299.8l3.2-5.5 5.2 3.6"/>
				<path id="path34829" class="s43" d="m400.9 294.4l3.2-5.4 5.1 3.7"/>
				<path id="path34831" class="s43" d="m400 289.1l3.1-5.2 5 3.6"/>
				<path id="path34833" class="s43" d="m399.1 283.8l2.9-5 4.9 3.5"/>
				<path id="path34835" class="s43" d="m398.2 278.4l2.8-4.8 4.7 3.4"/>
				<path id="path34837" class="s43" d="m397.2 273.1l2.8-4.7 4.5 3.2"/>
				<path id="path34839" class="s43" d="m396.2 267.7l2.8-4.6 4.4 3.1"/>
				<path id="path34841" class="s43" d="m395.3 262.4l2.6-4.4 4.2 3.1"/>
				<path id="path34843" class="s43" d="m394.4 257.1l2.5-4.2 4.2 2.9"/>
				<path id="path34845" class="s43" d="m393.4 251.7l2.4-4 4 2.8"/>
				<path id="path34847" class="s43" d="m392.5 246.2l2.3-3.8 3.8 2.7"/>
				<path id="path34849" class="s43" d="m391.6 241l2.2-3.7 3.7 2.6"/>
				<path id="path34851" class="s43" d="m390.6 235.6l2.1-3.6 3.5 2.5"/>
				<path id="path34853" class="s43" d="m389.7 230.1l2-3.3 3.3 2.3"/>
				<path id="path34855" class="s43" d="m388.7 224.9l2-3.2 3.2 2.2"/>
				<path id="path34857" class="s43" d="m387.8 219.6l1.8-3.1 3.1 2.1"/>
				<path id="path34859" class="s43" d="m386.8 214.2l1.8-2.8 2.9 2"/>
			</g>
			<path id="path4934" class="s9" d="m142 273.7c1.1-0.2 2-0.6 4.2-1.4 0.7-0.2 1.5-0.4 1.7-0.4 0.5 0 2.7 0.3 7.1 1 2.2 0.4 4.1 0.7 4.1 0.7 0.2 0 0.4-1.2 0.3-1.7v-0.3l-1.8-0.1c-4-0.3-5.5-0.3-8.7-1.5-5-1.9-6.6-2.8-8.9-2.8-1.4-0.1-2.2 0.1-2.9 0.3-1.7 0.4-2.7 1.9-3.8 3.8-0.4 0.6-0.7 1.4-0.8 1.6-0.2 0.3 0 0.3 0.2 0.4 0.1 0 0.4 0.1 1 0 0.5 0 1.1 0 1.4 0 2 0.4 5.2 0.7 6.9 0.4zm-6.9-1.9l-0.4 0.3-0.7 0.1c0.1 0 1.5-2.6 1.7-2.7 0.3-0.2 0.1-0.1 0.4 0.8 0.2 1.1 0.7 1.3 1.6 1.9 0.3 0.2 0.6 0.4 0.5 0.5-0.1 0.1-0.6-0.1-1.5-0.2-0.5 0-0.8-0.2-1.8-0.2zm8.2-0.5q0.6-0.7 0.6-1.6v-0.5l0.4 0.2c0.8 0.4 1.8 0.8 2.5 1 0.4 0 0.7 0.2 0.7 0.2 0 0-1.2 0.4-2.5 0.8-0.4 0.1-1 0.2-1.3 0.2h-0.6z"/>
			<path id="path8104" fill-rule="evenodd" class="s45" d="m147.2 270.6c-1.3-0.3-4.2-1.9-5.4-1.9-4.9-1 0.2 3.2-0.2 3.7 0.4 0.2 5-1.6 5.6-1.8z"/>
			<path id="path8106-5" fill-rule="evenodd" class="s46" d="m135.9 269.1c-1.1 1-1.9 2.3-2 3.4 1.3-0.2 2.9 0.4 3.9 0.1-1.4-0.8-1.6-2.3-1.9-3.5z"/>
			<path id="path8102" fill-rule="evenodd" class="s34" d="m143.5 268.9c-3-1.1-6.4-0.8-7.8 0.5 0.3 1.7 0.8 2.7 2.2 3.3 1.6 0.3 4.4 0 5.3-1.1 1-1.1 1.2-2.2 0.3-2.7z"/>
			<g id="g8954">
				<g id="g8695">
					<path id="path2221-5" fill-rule="evenodd" class="s47" d="m127.8 223.9l67-198.3c4.2-15.1 31.8-12.4 27.8 6.4l-51.8 192.9 58.5-195.1c4.4-16.5 28.9-13.6 26.1 4.8l-41.8 191.4z"/>
					<path id="path2223-4" class="s48" d="m147.1 224.3l64.1-208.1m2.3 0.4l-60.3 207.8"/>
					<path id="path2225-6" class="s48" d="m188.9 225.4l55.7-206.1m2.5 0.5l-52.6 205.7"/>
					<path id="path2231-4" class="s48" d="m172.3 220.5c5.1-1.7 12.6-1.3 17.3 2.1"/>
					<path id="path2233-7" class="s48" d="m196 221.1c5.5-0.4 11.8-0.6 17.7 3.6"/>
					<path id="path2239-5" class="s48" d="m173.7 216c7.4-1.3 12.6 0.2 16.6 2.8"/>
					<path id="path2241-5" class="s48" d="m196.7 217.7c5.6-1.3 12.2-0.2 17.7 3.6"/>
					<path id="path2243-6" class="s48" d="m142.5 179.4c5.7-1 11.9 0 17 3.6"/>
					<path id="path2245-4" class="s48" d="m144 175.9c5.8-0.4 12.3 0.1 17.1 3.9"/>
					<path id="path2247-1" class="s48" d="m166 179.5c5.6-0.6 11.2 0.2 15.9 4.1"/>
					<path id="path2249-1" class="s48" d="m164.8 183.5c6.1-0.5 11.4 0.2 15.9 4.1"/>
					<path id="path2251-0" class="s48" d="m183.2 182.2c4.9-0.4 10.1-0.9 16.6 2.2"/>
					<path id="path2253-6" class="s48" d="m182.1 186.1c4.8-0.7 10.1-1 16.6 1.5"/>
					<path id="path2255-9" class="s48" d="m204.8 185.9c5.7-0.3 11.4 0 16.7 3.7"/>
					<path id="path2257-7" class="s48" d="m203.9 189.4c6.2-0.2 12.1 0.8 16.8 4"/>
					<path id="path2275-7" class="s48" d="m154.1 146c5.4-0.6 10.8-0.4 15.9 3"/>
					<path id="path2277-9" class="s48" d="m155.3 142.2c6-0.7 11.4 0.8 15.9 3.4"/>
					<path id="path2279-3" class="s48" d="m175.7 146.7c6.1-0.4 10.8 0.9 14.9 2.9"/>
					<path id="path2281-2" class="s48" d="m174.8 150.5c5.8-0.6 10.6 0.3 14.8 2.9"/>
					<path id="path2283-5" class="s48" d="m193.6 149.3c5.6-0.7 10.7-0.1 15 2.2"/>
					<path id="path2285-9" class="s48" d="m192 153.5c5.3-0.7 10.6-0.4 15.4 2"/>
					<path id="path2287-9" class="s48" d="m213.2 153.2c5.3-0.3 10.8 0.9 15.6 4.1"/>
					<path id="path2289-0" class="s48" d="m212.3 156.9c5.5-0.2 11.2 0.7 15.7 3.9"/>
					<path id="path2291-2" class="s48" d="m165.6 112q8.5-1.4 15.5 2.3"/>
					<path id="path2293-8" class="s48" d="m164.4 115.2c5.7-0.4 11 0.3 15.4 2.8"/>
					<path id="path2295-3" class="s48" d="m184.8 116c5.9-0.6 10.5 1 14.4 3.3"/>
					<path id="path2297-6" class="s48" d="m183.8 119.1c5.1 0 9.9 0.8 14.3 3.6"/>
					<path id="path2299-6" class="s48" d="m202.5 119.5c6.2-0.7 10.7 0.5 14.2 2.7"/>
					<path id="path2301-3" class="s48" d="m201.5 122.9c5.4-0.5 10.3-0.2 14.2 2.4"/>
					<path id="path2303-7" class="s48" d="m220.9 122.9c5.4-0.2 10.4 0.6 14.3 4"/>
					<path id="path2305-3" class="s48" d="m220.1 126.2c5.6-0.1 10.4 1 14.3 4"/>
					<path id="path2307-3" class="s48" d="m174.8 84c6.9-0.6 10.8 1.1 14.4 3.2"/>
					<path id="path2309-8" class="s48" d="m173.8 87.2c5.2 0 10.2 0.6 14.4 3.5"/>
					<path id="path2311-4" class="s48" d="m192.9 87.8c5 0 9.9 0.2 14 3.3"/>
					<path id="path2313-6" class="s48" d="m191.6 91.5c5.4-0.2 10.1 0.8 14.1 3.2"/>
					<path id="path2327-3" class="s48" d="m209.7 94.2c4.6-0.1 9.5 0 13.7 2.7"/>
					<path id="path2329-0" class="s48" d="m227.3 97.5c5-0.2 10.1 0.6 13.7 3.5"/>
					<path id="path2335-1" class="s48" d="m211 90.4c4.5 0 9.6-0.1 13.7 3.1"/>
					<path id="path2337-6" class="s48" d="m228.2 94c4.4-0.1 9.3-0.1 13.5 3.3"/>
					<path id="path2339-5" class="s48" d="m182.9 61.1c4.6 0 9.2-0.5 13.4 3.2"/>
					<path id="path2341-9" class="s48" d="m183.7 57.7c4.9-0.5 9.6 0 13.6 2.9"/>
					<path id="path2343-5" class="s48" d="m200.4 60.9c4.7 0.1 9.1 0.2 13.1 3.6"/>
					<path id="path2345-8" class="s48" d="m199.8 64.2c4.6 0.3 9.1 0.4 13.1 3.8"/>
					<path id="path2347-5" class="s48" d="m218.2 67c4.3-0.1 8.6-0.5 12.6 2.9"/>
					<path id="path2349-9" class="s48" d="m219.2 64c4.3-0.3 8.6-0.2 12.4 2.8"/>
					<path id="path2351-1" class="s48" d="m235 67.5c4.4-0.3 8.7-0.3 12.4 3.2"/>
					<path id="path2353-4" class="s48" d="m234.2 70.6c4.2-0.3 8.4 0 12.6 3"/>
					<path id="path2371-0" class="s48" d="m240.6 45.8c4.2 0 8.4 0.2 11.5 3.1"/>
					<path id="path2373-6" class="s48" d="m241.6 42.4c4.1-0.2 8 0.3 11.4 2.8"/>
					<path id="path2375-2" class="s48" d="m226.2 39.9c4.4-0.4 9.9 0.4 11.9 2.1"/>
					<path id="path2377-3" class="s48" d="m225.5 43c3.4-0.2 8-0.1 11.9 2.4"/>
					<path id="path2379-3" class="s48" d="m207.4 37c3.9 0.1 8.1 0.2 12.9 3.3"/>
					<path id="path2381-5" class="s48" d="m206.5 40c4.3-0.3 9.3 0.6 12.8 3.6"/>
					<path id="path2383-1" class="s48" d="m192 33.6c5.3-0.6 8.6 0.3 12.7 2.4"/>
					<path id="path2385-5" class="s48" d="m191.2 36.7c4.4 0.1 8.9-0.1 12.7 2.5"/>
					<path id="path5983-6" class="s48" d="m131.6 213.2c5.8-0.8 12.6 0.7 17.3 4.1"/>
					<path id="path5985-6" class="s48" d="m154.7 218c5.5-0.4 11-0.7 16.9 3.4"/>
					<path id="path5987-7" class="s48" d="m132.8 209.7c7.5-1.3 13.6 1.6 17.6 4.2"/>
					<path id="path5989-8" class="s48" d="m155.9 214.6c5.7-1.3 11-0.5 16.6 3.3"/>
				</g>
				<path id="path2405-2" fill-rule="evenodd" class="s49" d="m213.7 226.6l-86.2-2.1c5.9 11.2 5.8 24.2 6.1 35.9 14.6-0.5 21.9-0.1 29 10.2 31-0.2 17.1 18.6 25 33.6 10.2-25.7 19-51.8 26.1-77.6z"/>
			</g>
			<g id="g14051">
				<path id="path11127" fill-rule="evenodd" class="s50" d="m169.4 277.2c0.6 0.7-0.3 1.6-1 2-4.4 3.2-3.9 6.7-1.8 8.9 1.3 1.7 3.4 0.9 3.8-0.2 0.5-1.1 0.9-2.6 1.5-4.1 5.7-11 4.1-13.5 4.1-13.8-0.1-0.6-2.4-4.6-5-3.8-2.7 0.7-8.7 5.5-1.6 11z"/>
				<path id="path8092" class="s51" d="m168.7 279.2c-4.4 3.2-3.9 6.6-1.8 8.8 1.3 1.8 3.4 0.9 3.8-0.2 0.5-1.1 0.8-2.5 1.5-4 5.6-11.1 4.1-13.5 4.1-13.9-0.1-0.6-2.4-4.5-5-3.8-2.7 0.8-8.7 5.6-1.6 11.1 1.5 1.1 0.4 2.7-0.6 4.7m-0.2-9c4.1 0.2 4 4 1.4 9.9-2.1 2.2-2.4 2.6-2.8 2.4-0.4-0.2-0.2-1.4 1.6-3.3"/>
				<path id="path13072" class="s32" d="m167.8 272.5c0.1-3.3 2.7-5.1 3.9-5.1 1-0.1 2.5 1 3.3 3.5 0.7 1.7-0.6 4.3-1.5 6.3"/>
				<path id="path13070" class="s32" d="m169.1 286.6c0.1 0.4-0.2 0.8-0.6 0.9-0.4 0.1-0.8-0.2-0.9-0.6 0-0.4 0.3-0.8 0.7-0.9 0.4 0 0.7 0.2 0.8 0.6z"/>
			</g>
		</g>
	</g>
</svg>