<?xml version="1.0" standalone="no"?>
<svg xmlns="http://www.w3.org/2000/svg" width="600" height="600" viewBox="0 0 600 600">
<g transform="translate(300,300) scale(0.422,-0.422)">
<path fill="#26619C" fillrule="evenodd" d="M-688.708,-688.708L-413.226,-137.742L-688.708,0L-413.226,137.742
L-688.708,688.708L-137.742,413.226L0,688.708L137.742,413.226L688.708,688.708
L413.226,137.742L688.708,0L413.226,-137.742L688.708,-688.708
L137.742,-413.226L0,-688.708L-137.742,-413.226L-688.708,-688.708Z
M-491.935,-491.935L-177.097,-334.516L-229.569,-229.569L-334.516,-177.097
L-491.935,-491.935Z
M344.354,0L373.871,-59.0322L491.935,0L373.871,59.0322L344.354,0Z
M-491.935,491.935L-334.516,177.097L-229.569,229.569L-177.097,334.516
L-491.935,491.935Z
M-59.0322,-373.871L0,-491.935L59.0322,-373.871L0,-344.354
L-59.0322,-373.871Z
M-491.935,0L-373.871,-59.0322L-344.354,0L-373.871,59.0322L-491.935,0Z
M177.097,-334.516L491.935,-491.935L334.516,-177.097L229.569,-229.569
L177.097,-334.516Z
M177.097,334.516L229.569,229.569L334.516,177.097L491.935,491.935
L177.097,334.516Z
M-59.0322,373.871L0,344.354L59.0322,373.871L0,491.935L-59.0322,373.871Z
M-245.967,0L-163.979,-163.979L0,-245.967L163.979,-163.979L245.967,0
L163.979,163.979L0,245.967L-163.979,163.979L-245.967,0Z"/>
<path fill="#dc143c" d="M147.58,393.548L167.258,354.189L541.128,541.128
L307.459,73.79L332.061,24.5967L639.516,639.516L147.58,393.548Z
M245.967,-196.774L639.516,0L403.387,118.064L383.709,78.71L541.128,0
L278.764,-131.183L245.967,-196.774Z
M24.5967,-332.056L639.516,-639.516L393.548,-147.58L354.189,-167.258
L541.128,-541.128L73.79,-307.459L24.5967,-332.056Z
M-639.516,-639.516L-147.58,-393.548L-167.258,-354.193L-541.128,-541.128
L-307.459,-73.79L-332.056,-24.5967L-639.516,-639.516Z
M-639.516,639.516L-393.548,147.58L-354.193,167.258L-541.128,541.128
L-73.79,307.459L-24.5967,332.06L-639.516,639.516Z
M-196.774,-245.967L0,-639.516L118.064,-403.387L78.71,-383.709L0,-541.128
L-131.183,-278.764L-196.774,-245.967Z
M-118.064,403.387L-78.71,383.709L0,541.128L131.183,278.764L196.774,245.967
L0,639.516L-118.064,403.387Z
M-639.516,0L-403.387,-118.064L-383.709,-78.71L-541.128,0L-278.764,131.183
L-245.967,196.774L-639.516,0Z
M-324.677,-157.419L-73.79,-282.862L-24.5967,-258.266L-304.999,-118.064
L-324.677,-157.419Z
M196.774,147.58L314.839,-88.5479L354.189,-68.8711L262.365,114.784
L196.774,147.58Z
M-282.862,73.79L-258.266,24.5967L-118.064,304.999L-157.419,324.677
L-282.862,73.79Z
M-88.5479,-314.839L-68.8711,-354.193L114.784,-262.365L147.58,-196.774
L-88.5479,-314.839Z
M24.5967,258.266L305,118.064L324.677,157.419L73.79,282.862L24.5967,258.266Z
M-354.193,68.8711L-262.365,-114.784L-196.774,-147.58L-314.839,88.5479
L-354.193,68.8711Z
M118.064,-304.999L157.419,-324.677L282.862,-73.79L258.266,-24.5967
L118.064,-304.999Z
M-147.58,196.774L88.5479,314.839L68.8711,354.189L-114.784,262.365
L-147.58,196.774Z"/></g></svg>
