<?xml version="1.0" encoding="UTF-8" standalone="no"?>
<svg
   version="1.0"
   width="868.000000pt"
   height="1280.000000pt"
   viewBox="0 0 868.000000 1280.000000"
   preserveAspectRatio="xMidYMid meet"
   id="svg1"
   sodipodi:docname="1300051.svg"
   inkscape:version="1.4 (e7c3feb100, 2024-10-09)"
   xmlns:inkscape="http://www.inkscape.org/namespaces/inkscape"
   xmlns:sodipodi="http://sodipodi.sourceforge.net/DTD/sodipodi-0.dtd"
   xmlns="http://www.w3.org/2000/svg"
   xmlns:svg="http://www.w3.org/2000/svg">
  <defs
     id="defs1" />
  <sodipodi:namedview
     id="namedview1"
     pagecolor="#ffffff"
     bordercolor="#000000"
     borderopacity="0.25"
     inkscape:showpageshadow="2"
     inkscape:pageopacity="0.0"
     inkscape:pagecheckerboard="0"
     inkscape:deskcolor="#d1d1d1"
     inkscape:document-units="pt"
     inkscape:zoom="0.4640625"
     inkscape:cx="578.58586"
     inkscape:cy="853.33333"
     inkscape:window-width="1920"
     inkscape:window-height="1008"
     inkscape:window-x="0"
     inkscape:window-y="35"
     inkscape:window-maximized="1"
     inkscape:current-layer="svg1" />
  <metadata
     id="metadata1">
Created by potrace 1.15, written by Peter Selinger 2001-2017
</metadata>
  <g
     transform="translate(0.000000,1280.000000) scale(0.100000,-0.100000)"
     fill="#000000"
     stroke="none"
     id="g1"
     style="fill:#8f9779;fill-opacity:1;stroke:#000000;stroke-opacity:1">
    <path
       d="M3587 11698 c-28 -38 -57 -109 -58 -141 0 -21 -1 -21 -12 -3 -65 102 -163 141 -252 99 -30 -14 -35 -22 -35 -51 0 -68 65 -152 118 -152 26 0 52 -25 52 -51 0 -18 -2 -19 -28 -5 -34 18 -132 32 -132 20 0 -5 9 -22 20 -39 23 -35 25 -46 6 -39 -10 4 -15 -8 -21 -42 -5 -38 -3 -52 12 -72 33 -44 72 -66 126 -72 40 -4 51 -9 48 -20 -3 -8 -6 -65 -9 -126 -4 -111 13 -235 52 -382 14 -53 14 -53 -7 -50 -20 3 -23 11 -28 73 -4 54 -19 100 -61 200 -30 72 -58 138 -61 148 -10 26 -27 20 -28 -10 0 -18 -7 -5 -16 34 -9 34 -20 60 -24 57 -5 -3 -9 25 -9 62 0 186 -110 304 -282 304 -42 0 -56 -3 -53 -12 3 -7 -9 -21 -26 -31 -42 -23 -32 -31 24 -17 65 17 91 1 83 -49 -7 -45 8 -104 40 -150 29 -43 30 -51 4 -51 -23 0 -24 -4 -10 -31 15 -26 -2 -25 -84 6 -80 30 -96 31 -128 6 -20 -16 -32 -18 -61 -12 -44 10 -113 -2 -165 -28 -42 -21 -152 -117 -152 -132 0 -19 41 -31 71 -20 l30 10 -21 -26 c-26 -33 -25 -57 2 -101 40 -65 150 -92 214 -53 23 14 37 34 49 70 l17 51 36 -30 c28 -23 47 -30 78 -30 48 0 81 -26 42 -32 -21 -4 -20 -5 12 -21 31 -15 32 -16 8 -12 -57 11 -24 -12 125 -87 123 -63 163 -79 212 -84 64 -6 115 -21 115 -35 0 -4 -16 -20 -35 -35 -27 -20 -39 -24 -47 -16 -7 7 -15 12 -20 12 -13 0 -3 -127 12 -145 21 -26 66 -45 105 -45 l35 0 0 -177 c1 -106 8 -238 19 -325 17 -141 17 -148 0 -148 -12 0 -19 -9 -21 -27 l-4 -28 -12 28 c-7 16 -12 52 -12 81 0 86 -49 205 -123 298 l-29 37 16 47 c20 58 21 114 2 139 -13 19 -15 19 -54 1 -22 -10 -45 -16 -50 -12 -5 3 -15 27 -21 52 -24 94 -86 175 -147 190 -34 9 -46 -6 -52 -65 -4 -44 4 -83 33 -153 6 -15 2 -18 -22 -18 -34 0 -51 -17 -82 -77 -30 -60 -28 -92 7 -104 15 -5 36 -23 46 -39 18 -31 31 -36 55 -21 11 7 19 2 30 -19 56 -101 134 -220 163 -247 18 -18 74 -55 123 -83 57 -33 79 -50 60 -46 -16 3 -54 9 -82 12 -33 4 -53 12 -53 20 0 30 -57 75 -155 124 -58 28 -111 60 -118 71 -6 10 -18 19 -25 19 -7 0 -18 11 -24 25 -16 35 -31 31 -23 -5 8 -35 7 -35 -31 -15 -39 20 -63 19 -101 -4 -47 -29 -85 -101 -87 -164 l-1 -52 40 -12 c22 -7 58 -15 80 -19 39 -6 40 -6 18 -21 -35 -24 -28 -28 36 -25 33 2 95 -4 138 -13 43 -10 92 -20 108 -22 17 -3 45 -19 63 -36 29 -28 39 -32 90 -31 31 0 69 3 85 7 21 6 27 4 27 -8 0 -11 -6 -14 -24 -9 -33 8 -76 -44 -76 -94 0 -30 -7 -43 -41 -74 -23 -21 -56 -40 -75 -44 -34 -6 -64 -27 -64 -44 0 -12 80 -80 106 -90 15 -6 23 -20 26 -48 3 -22 16 -54 29 -71 21 -28 24 -45 27 -139 l3 -107 -41 90 c-51 109 -65 127 -56 68 4 -25 2 -43 -3 -43 -6 0 -11 19 -13 42 -4 52 -24 61 -36 16 l-10 -33 0 40 c0 45 -34 159 -64 220 -45 89 -128 148 -201 143 -29 -2 -42 -8 -42 -18 -1 -30 -15 -38 -54 -33 -23 3 -41 1 -45 -6 -4 -6 -2 -11 5 -11 7 0 0 -14 -17 -31 l-29 -31 39 16 c21 9 49 16 62 16 23 0 27 -6 40 -70 11 -56 43 -108 90 -147 25 -20 42 -38 39 -41 -3 -3 -15 4 -28 16 -21 20 -34 22 -134 22 -165 0 -264 -36 -312 -113 -16 -27 -19 -42 -13 -82 l7 -50 65 -22 c107 -37 114 -34 168 72 l31 60 1 -47 0 -48 78 0 c70 0 81 -3 101 -24 25 -27 26 -27 -46 -41 -50 -10 -39 -25 17 -25 28 0 67 -7 88 -17 l37 -16 -52 -7 c-71 -10 -139 -45 -171 -89 -76 -101 -190 -181 -260 -181 -34 0 -35 1 -28 35 3 19 9 51 13 71 l6 37 -39 -7 c-96 -17 -211 -93 -236 -155 -19 -48 -21 -1 -3 54 29 83 4 134 -40 84 -14 -15 -19 -35 -18 -77 0 -31 -2 -50 -6 -41 -3 9 -31 44 -63 77 l-56 61 -7 -27 c-8 -28 -9 -26 -19 21 -8 32 -26 36 -26 5 0 -48 -18 1 -34 92 -22 125 -55 194 -106 220 -41 21 -124 27 -149 11 -7 -5 -25 -4 -43 3 -23 9 -34 8 -56 -5 -15 -8 -36 -21 -47 -27 -11 -6 -36 -13 -56 -17 -54 -8 -71 -26 -75 -75 -3 -33 4 -60 27 -111 28 -61 37 -70 88 -98 81 -43 123 -77 148 -119 26 -43 30 -60 8 -42 -8 6 -19 10 -24 8 -14 -4 155 -204 207 -246 51 -40 125 -78 172 -86 64 -11 69 -21 32 -59 -22 -23 -32 -42 -32 -65 0 -48 44 -63 111 -37 13 5 17 -12 28 -122 6 -70 14 -147 17 -169 l6 -41 -89 86 c-90 89 -208 175 -224 165 -5 -3 -27 9 -49 26 -44 35 -55 22 -19 -23 20 -26 20 -27 2 -52 -10 -13 -23 -25 -30 -25 -6 0 -13 -5 -15 -12 -3 -7 -13 -5 -31 7 -55 36 -38 3 42 -79 46 -46 104 -98 129 -116 27 -18 69 -63 98 -103 58 -84 89 -101 136 -74 56 32 61 27 123 -109 56 -126 145 -354 145 -374 0 -5 -22 2 -49 17 -36 20 -55 40 -75 78 -14 27 -67 95 -117 149 -50 55 -104 125 -119 155 l-29 56 -1 -35 c-1 -33 -1 -34 -16 -15 -8 11 -13 29 -10 39 9 34 -14 113 -45 155 -33 46 -93 81 -139 81 -34 0 -202 -81 -182 -87 10 -4 10 -8 1 -19 -19 -23 -4 -27 31 -9 18 9 33 15 35 13 7 -7 9 -88 2 -94 -16 -16 -5 -35 31 -53 38 -19 89 -67 81 -75 -6 -6 -62 8 -131 33 -69 25 -118 27 -159 5 -30 -15 -31 -15 -62 20 -35 38 -64 50 -86 37 -24 -15 -2 -69 53 -129 28 -31 59 -69 69 -84 16 -26 19 -27 80 -21 72 6 103 -5 168 -64 42 -38 49 -53 22 -53 -23 0 -10 -11 62 -55 126 -75 353 -117 439 -81 21 9 46 16 55 16 21 0 85 -39 77 -47 -3 -3 -14 1 -24 10 -25 23 -83 21 -136 -4 -114 -53 -185 -161 -194 -294 l-5 -75 -52 48 c-65 60 -305 222 -502 340 -162 98 -388 218 -600 320 -157 75 -183 78 -195 18 -7 -32 -2 -56 26 -136 46 -130 82 -215 110 -259 13 -20 27 -51 31 -69 3 -18 25 -55 47 -83 22 -28 65 -95 96 -148 110 -193 170 -271 315 -414 77 -75 165 -153 197 -172 31 -19 85 -66 120 -105 71 -80 169 -153 280 -210 87 -44 241 -100 275 -100 13 0 37 -11 52 -24 46 -39 163 -75 308 -95 53 -8 108 -30 273 -112 114 -57 270 -129 347 -160 l140 -58 6 -63 c4 -35 7 -112 8 -173 2 -165 34 -533 57 -647 4 -18 1 -28 -6 -28 -23 0 -71 -42 -90 -80 -25 -49 -25 -86 -1 -142 27 -63 62 -92 104 -85 l33 5 13 -96 c15 -117 72 -432 100 -561 12 -52 19 -96 17 -98 -2 -3 -18 32 -35 77 -21 54 -34 107 -38 161 -3 43 -8 79 -10 79 -2 0 -15 -7 -28 -16 -17 -11 -29 -13 -41 -6 -11 6 -27 7 -41 1 -13 -5 -25 -4 -28 1 -3 4 -45 101 -94 214 l-88 205 14 53 c21 77 28 235 14 326 -19 116 -51 240 -72 276 -10 17 -36 75 -59 129 -108 260 -224 438 -404 621 -107 108 -184 157 -321 204 -33 11 -85 34 -115 51 -70 39 -186 65 -245 57 -41 -7 -45 -10 -51 -41 -8 -45 21 -179 51 -230 13 -22 66 -86 119 -143 72 -78 98 -113 106 -145 47 -180 71 -233 217 -477 61 -102 135 -234 164 -295 44 -90 66 -122 120 -176 76 -76 167 -132 289 -178 47 -18 90 -38 96 -44 6 -7 44 -88 84 -182 143 -333 224 -475 354 -613 59 -62 65 -74 90 -161 15 -52 36 -117 46 -144 11 -28 18 -52 16 -54 -2 -2 -24 25 -49 60 -62 86 -144 160 -198 177 -24 8 -60 28 -80 46 -61 53 -115 68 -222 61 -130 -9 -343 -60 -395 -96 -15 -10 -54 -35 -87 -56 -119 -76 -250 -221 -321 -355 -16 -30 -39 -70 -51 -89 -37 -55 -31 -78 25 -102 39 -17 60 -20 122 -15 41 3 100 10 130 16 30 6 118 15 195 19 132 8 146 11 243 50 143 57 227 101 299 155 63 48 139 146 149 195 3 14 10 37 16 51 l10 25 52 -56 c30 -34 81 -113 125 -194 42 -78 89 -151 109 -169 34 -31 68 -84 59 -93 -3 -2 -15 0 -26 7 -12 6 -59 14 -104 17 -87 6 -171 -11 -212 -43 -20 -15 -20 -15 3 -34 60 -49 231 -66 322 -31 l51 19 9 -24 c5 -13 21 -58 35 -100 37 -109 113 -299 146 -366 16 -32 29 -68 29 -82 0 -13 17 -48 37 -77 20 -30 59 -101 86 -159 56 -119 113 -210 131 -210 7 0 25 14 39 30 29 32 47 37 76 18 15 -9 23 -9 35 1 9 8 16 18 16 23 0 5 -24 62 -54 126 -66 145 -86 212 -86 295 0 95 8 121 41 141 15 9 79 67 141 129 136 135 153 145 207 127 77 -25 188 13 281 97 51 46 110 122 110 143 0 51 -200 15 -300 -54 -70 -49 -279 -234 -371 -328 -36 -38 -71 -68 -77 -68 -16 0 -25 37 -17 77 4 22 25 55 60 93 67 73 80 96 59 104 -9 4 -24 -5 -39 -22 -34 -37 -31 -21 16 109 87 243 211 510 316 681 67 109 288 426 372 536 39 50 108 130 154 178 l82 86 100 -49 c94 -47 163 -75 246 -102 19 -6 68 -11 109 -11 l73 0 -5 68 c-4 46 -15 89 -37 137 -17 38 -30 74 -27 80 2 6 23 17 47 24 29 9 65 34 109 76 36 34 78 65 93 69 16 4 49 26 74 49 70 64 283 351 328 442 22 44 75 146 118 226 78 148 121 254 132 332 7 43 6 44 -25 51 -106 21 -209 -4 -355 -86 -49 -28 -109 -62 -132 -75 -44 -24 -115 -87 -247 -218 -45 -44 -111 -101 -148 -127 -36 -25 -84 -69 -105 -96 -21 -27 -50 -58 -66 -68 -66 -45 -188 -257 -190 -330 -1 -28 -4 -33 -16 -28 -9 4 -38 9 -66 12 -27 2 -54 7 -58 12 -5 4 14 70 42 146 71 194 76 203 114 219 57 24 110 94 201 269 49 93 125 233 170 310 46 78 99 170 119 206 20 36 81 126 136 200 55 74 112 158 127 185 35 64 316 469 448 645 181 242 348 432 500 568 80 72 317 240 446 315 36 21 81 54 101 73 41 40 195 338 205 397 l6 37 -36 0 c-48 0 -167 -18 -241 -37 -70 -17 -113 -41 -175 -99 -32 -30 -64 -48 -114 -63 -37 -12 -75 -21 -83 -21 -8 0 -45 -18 -82 -40 -37 -22 -76 -40 -87 -40 -74 0 -388 -281 -452 -406 -24 -47 -44 -70 -80 -93 -26 -16 -59 -43 -74 -58 -37 -39 -131 -201 -168 -290 -22 -54 -46 -90 -83 -127 -88 -87 -152 -233 -222 -503 -19 -74 -35 -151 -35 -170 0 -36 35 -149 53 -171 8 -10 0 -27 -31 -70 -23 -31 -54 -77 -69 -102 -14 -25 -50 -81 -79 -125 -28 -44 -80 -136 -114 -205 -88 -176 -162 -312 -167 -307 -2 3 10 36 27 73 75 163 99 251 64 237 -9 -3 -20 0 -24 7 -12 20 -39 -29 -46 -86 -4 -27 -19 -74 -34 -104 -15 -30 -42 -101 -60 -158 -17 -56 -37 -105 -43 -109 -7 -4 -8 0 -3 13 23 58 176 583 231 789 87 334 127 503 180 775 25 129 61 298 80 375 42 175 57 270 90 560 45 398 69 517 155 770 85 251 102 278 266 440 78 77 167 172 197 212 30 39 90 107 133 150 78 78 312 393 343 463 12 28 16 73 16 220 1 135 6 206 18 263 9 43 17 97 17 119 0 40 0 40 -31 34 -27 -5 -189 -73 -305 -127 -22 -11 -76 -49 -120 -85 -43 -36 -96 -75 -116 -85 -93 -48 -384 -531 -456 -759 -52 -163 -89 -325 -116 -505 l-14 -90 -1 107 c0 59 4 142 10 185 12 89 99 462 201 863 67 262 70 280 70 390 0 117 -16 232 -53 370 -21 77 -30 95 -60 110 -26 14 -82 -101 -119 -246 -23 -87 -42 -137 -75 -192 -25 -41 -45 -78 -45 -83 0 -28 -23 7 -95 142 -96 181 -182 319 -200 319 -23 0 -45 -48 -65 -138 -10 -48 -28 -127 -39 -177 -35 -163 -44 -278 -40 -527 l4 -236 -30 56 c-31 58 -140 202 -153 202 -4 0 -52 43 -107 96 -104 99 -139 123 -215 145 -25 7 -67 25 -95 40 -39 22 -78 32 -181 45 -72 9 -139 14 -149 10 -16 -6 -17 -17 -12 -114 12 -198 24 -262 86 -452 63 -194 85 -238 170 -334 l53 -59 -32 -13 c-17 -8 -44 -22 -58 -33 -24 -17 -34 -18 -80 -9 -91 16 -140 -25 -240 -203 -33 -58 -62 -91 -62 -70 0 6 -4 11 -8 11 -11 0 -137 -167 -153 -202 -19 -43 -27 -24 -17 44 14 102 -13 245 -55 294 -14 15 -50 34 -97 49 l-75 23 108 1 c60 1 106 5 103 10 -3 4 -34 14 -68 21 l-63 12 50 17 50 16 44 -27 c55 -34 105 -37 122 -7 11 22 13 22 119 4 47 -8 193 43 198 69 2 11 -4 19 -17 23 -27 7 -26 11 4 35 65 51 -2 148 -102 148 -50 0 -79 -21 -93 -68 -15 -46 -22 -53 -39 -43 -11 7 -10 14 8 37 l22 28 -21 20 c-15 16 -36 21 -90 24 -76 5 -84 16 -18 27 47 8 71 21 136 73 24 19 45 33 46 31 2 -2 11 -19 21 -38 17 -33 18 -34 31 -16 19 26 17 48 -6 78 -11 14 -20 38 -20 54 0 16 -7 38 -15 50 -20 28 -118 65 -176 66 -55 1 -82 -17 -136 -91 -21 -30 -67 -83 -103 -118 -62 -61 -100 -80 -100 -50 0 8 -41 -27 -92 -77 -55 -53 -94 -85 -96 -77 -3 7 13 48 34 91 21 43 35 81 32 85 -3 3 -20 -2 -37 -11 -17 -8 -31 -14 -31 -13 0 2 4 18 10 37 9 32 8 33 -17 26 -34 -8 -126 -67 -192 -123 l-54 -46 6 44 c17 124 29 502 20 615 -5 66 -9 121 -7 123 1 2 13 -4 27 -13 13 -8 51 -20 82 -25 81 -13 87 -23 42 -66 -43 -42 -44 -50 -14 -95 16 -24 37 -39 70 -50 26 -9 61 -25 77 -37 41 -31 67 -27 107 13 l35 35 25 -31 c19 -22 33 -29 52 -27 23 3 27 9 39 73 17 86 5 135 -44 178 -39 35 -44 52 -13 44 18 -5 20 -2 16 16 -2 12 -8 30 -12 39 -5 13 0 19 22 23 128 27 210 64 262 119 36 37 27 47 -19 21 -38 -22 -50 -18 -13 4 17 11 46 39 64 63 18 24 56 59 83 78 38 26 59 51 83 98 55 106 41 222 -26 222 -10 0 -30 9 -45 21 -31 24 -89 34 -141 25 -57 -11 -112 -68 -131 -135 -17 -60 -59 -125 -75 -116 -5 4 -9 24 -9 46 0 57 -14 48 -34 -23 -20 -73 -63 -168 -77 -168 -5 0 -9 27 -9 60 0 71 -15 108 -47 117 -37 9 -71 -12 -101 -63 -15 -25 -37 -58 -49 -72 -18 -22 -22 -24 -23 -9 0 9 -7 17 -16 17 -11 0 -14 5 -9 18 42 108 48 142 34 199 -7 32 -14 93 -14 136 0 42 -2 77 -5 77 -3 0 -23 -27 -43 -59 -71 -110 -100 -115 -72 -13 9 32 15 72 13 88 -4 26 -8 22 -41 -48 -20 -42 -41 -79 -46 -82 -5 -3 -19 -32 -31 -63 -13 -32 -27 -62 -32 -67 -4 -6 -8 78 -8 186 l0 195 24 -4 c33 -7 45 17 18 35 -12 8 -22 18 -22 23 0 15 54 10 77 -6 12 -9 59 -25 105 -37 69 -18 112 -21 260 -22 123 0 181 3 189 11 9 9 2 14 -30 19 l-42 7 31 18 c41 25 38 33 -11 25 -40 -6 -41 -6 -34 16 24 75 10 131 -40 164 -23 15 -24 17 -10 44 21 40 19 57 -3 37 -28 -25 -42 -21 -42 14 l0 30 -27 -19 c-59 -41 -279 -140 -289 -129 -2 1 8 36 21 76 14 40 28 99 31 130 5 52 4 55 -10 37 -15 -19 -16 -19 -16 7 0 24 -8 18 -82 -58 -44 -46 -85 -90 -89 -97 -21 -32 -6 30 41 172 28 83 50 165 50 181 0 16 1 29 3 29 1 0 24 -7 51 -15 63 -19 109 -19 175 1 42 12 65 28 112 77 59 62 72 87 44 87 -19 0 -19 4 1 41 18 36 11 51 -12 23 -9 -10 -6 -2 6 18 24 42 20 64 -10 48 -28 -15 -43 -12 -36 6 5 14 1 15 -31 9 -106 -19 -240 -116 -298 -214 -23 -39 -36 -51 -55 -51 -23 0 -22 3 18 36 56 47 66 68 67 134 1 30 8 82 15 114 16 70 3 150 -36 228 -29 58 -53 62 -87 16z m408 -1957 c-4 -17 -11 -31 -16 -31 -12 0 -11 14 3 45 15 32 22 25 13 -14z m-483 -486 l-4 -54 -24 15 c-13 9 -26 24 -29 35 -9 27 12 59 38 59 20 0 22 -4 19 -55z m-3 -247 c-1 -46 -4 -96 -8 -113 l-6 -30 -18 45 c-10 27 -17 73 -17 113 0 65 1 67 25 67 25 0 25 -1 24 -82z m-1811 -270 c7 -7 12 -25 12 -41 l0 -29 -30 25 c-16 14 -40 29 -52 33 -22 8 -22 8 7 15 45 10 50 10 63 -3z m56 -196 c-10 -2 -23 -8 -28 -13 -6 -5 -18 -9 -27 -9 -15 0 -14 4 4 41 l21 42 24 -29 c24 -27 24 -29 6 -32z m3287 -82 c15 0 49 -78 49 -111 0 -31 109 -234 142 -265 18 -17 69 -58 113 -91 118 -89 197 -187 278 -350 20 -39 41 -74 47 -78 41 -25 105 -313 135 -610 24 -231 14 -648 -20 -870 -35 -227 -58 -348 -104 -540 -16 -66 -41 -172 -56 -235 -32 -136 -151 -554 -165 -578 -16 -29 0 57 26 134 14 39 22 79 18 88 -6 17 -34 23 -34 7 0 -5 -9 -7 -20 -4 -24 6 -35 -29 -26 -90 4 -28 -1 -67 -14 -117 l-20 -75 5 80 c5 62 17 642 15 714 0 7 16 28 35 47 39 37 133 185 141 224 3 14 17 61 30 104 14 44 24 95 23 115 0 20 9 72 22 116 33 116 34 412 2 600 -12 72 -26 162 -32 200 -9 63 -43 162 -119 345 -30 73 -234 384 -290 443 -20 21 -85 73 -144 114 -76 53 -108 82 -108 96 0 18 5 19 65 15 71 -6 85 3 85 53 0 28 -54 116 -90 149 -28 25 -28 27 -33 170 -4 89 -12 164 -21 195 -22 70 -20 73 17 37 18 -18 40 -32 48 -32z m-2062 -109 c104 -100 239 -115 320 -34 l34 34 40 -17 40 -18 -7 -105 c-3 -57 -6 -145 -6 -195 l-1 -91 -39 45 c-39 43 -41 44 -55 26 -8 -11 -15 -23 -15 -28 0 -4 -28 15 -62 43 -106 85 -272 154 -292 121 -4 -6 7 -27 24 -46 l31 -35 -37 -18 c-21 -10 -45 -29 -52 -43 -13 -23 -12 -32 18 -103 19 -46 41 -82 54 -89 11 -7 46 -11 76 -9 44 2 63 -3 90 -21 38 -26 42 -37 18 -49 -59 -29 -56 -19 -43 -128 8 -64 52 -244 70 -288 9 -20 42 -64 74 -97 78 -83 99 -115 80 -127 -33 -21 -65 -9 -113 41 -26 28 -54 50 -62 50 -29 0 -111 49 -142 85 -48 54 -73 112 -83 188 -5 39 -11 72 -13 75 -13 13 -38 -14 -76 -80 -24 -40 -58 -90 -78 -110 -26 -28 -33 -40 -25 -50 6 -7 23 -50 38 -95 22 -70 35 -92 89 -150 34 -37 72 -85 84 -105 70 -115 212 -169 312 -118 32 16 41 28 52 67 7 25 19 48 27 51 9 3 11 0 6 -8 -5 -8 -11 -417 -14 -911 l-6 -898 -60 86 c-164 235 -257 406 -431 793 -169 376 -266 639 -268 726 -1 43 19 78 110 192 40 52 44 93 13 153 -35 69 -49 162 -38 243 29 213 25 241 -21 148 -31 -61 -60 -96 -60 -73 0 7 -4 9 -10 6 -5 -3 -10 -17 -10 -31 0 -28 -7 -30 -31 -8 -16 14 -19 14 -34 -10 -24 -35 -32 -33 -46 14 -7 22 -16 37 -20 33 -4 -4 -9 -63 -11 -130 -2 -68 -6 -123 -10 -123 -5 0 -8 2 -8 5 0 3 -16 59 -36 125 l-37 121 22 20 c11 11 21 28 21 39 0 18 42 68 90 105 55 43 90 95 90 131 0 44 -28 94 -53 94 -11 0 -15 5 -11 11 18 29 -93 -28 -144 -74 -28 -26 -38 -17 -59 54 -34 118 -27 147 26 110 16 -12 44 -21 63 -21 39 0 138 54 138 75 0 15 -67 65 -87 65 -8 0 6 19 30 43 38 36 46 51 56 107 23 120 17 112 117 143 49 16 130 46 179 67 50 21 100 39 112 39 12 1 39 -16 62 -38z m2837 -71 c13 -24 36 -57 52 -74 46 -49 55 -140 58 -566 2 -207 7 -385 13 -411 11 -51 9 -105 -16 -339 -19 -174 -15 -182 -48 90 -16 138 -73 451 -100 549 -13 50 -13 59 5 109 44 126 49 369 12 590 -10 56 -14 101 -9 99 5 -1 20 -22 33 -47z m-2188 -9 c31 -31 64 -53 88 -60 75 -21 110 -11 155 41 l26 31 49 -50 c28 -28 67 -56 87 -62 27 -9 38 -20 47 -45 6 -18 24 -46 41 -60 29 -26 30 -31 24 -75 -4 -33 -1 -66 10 -106 21 -71 16 -139 -16 -220 l-24 -60 -7 120 c-7 113 -32 338 -44 398 -3 15 -12 27 -19 27 -36 0 -49 -74 -100 -544 -13 -121 -22 -224 -19 -228 11 -18 -14 -6 -36 17 -22 24 -23 27 -11 80 8 34 10 76 6 107 -7 52 -10 53 -57 33 -13 -5 -17 0 -20 26 l-3 32 -33 -34 c-19 -19 -51 -63 -72 -99 -21 -36 -55 -78 -74 -93 -45 -35 -61 -66 -76 -147 -14 -73 -37 -130 -52 -130 -16 0 -4 258 13 293 11 24 11 30 -2 38 -15 11 5 31 101 102 63 46 103 115 108 186 5 63 -17 131 -42 131 -8 0 -18 9 -21 20 -4 12 -32 37 -62 58 l-56 37 8 130 c6 110 15 155 31 155 2 0 25 -22 52 -49z m-1436 -189 c2 -86 0 -122 -8 -122 -23 0 -36 29 -30 67 5 27 0 57 -18 107 -13 38 -22 75 -19 82 7 20 36 22 55 5 13 -13 17 -40 20 -139z m121 143 c-1 -6 -9 -30 -18 -53 -9 -24 -18 -70 -22 -103 -3 -32 -10 -59 -14 -59 -15 0 -10 138 6 176 8 20 12 41 9 46 -4 6 4 8 17 6 13 -2 23 -8 22 -13z m1268 -282 c16 -10 29 -20 29 -23 -1 -8 -72 -51 -77 -46 -6 6 7 86 14 86 3 0 18 -8 34 -17z m638 -121 c1 -13 -3 -20 -9 -17 -5 3 -10 23 -9 43 0 30 2 33 9 17 5 -11 9 -30 9 -43z m1886 -118 l25 -56 -19 -77 c-25 -98 -67 -321 -81 -436 -6 -49 -13 -92 -16 -94 -10 -11 -2 84 20 218 25 155 50 458 40 485 -3 9 -3 16 0 16 3 0 17 -25 31 -56z m-3952 -291 c8 -8 -22 -43 -36 -43 -13 0 -47 30 -47 42 0 10 74 11 83 1z m1677 -186 c0 -23 -22 -38 -37 -25 -11 9 -10 13 4 24 23 17 33 17 33 1z m-227 -43 c3 -4 -5 -21 -18 -38 -13 -17 -27 -44 -30 -59 -9 -36 -29 -29 -33 11 -4 44 58 109 81 86z m-7 -183 c-3 -5 -19 -14 -36 -19 -23 -9 -30 -8 -30 2 0 7 3 16 7 19 10 10 65 8 59 -2z m1169 -279 c25 -79 83 -198 220 -452 37 -69 80 -159 97 -200 16 -41 48 -104 71 -140 42 -64 42 -65 42 -160 1 -85 4 -102 31 -160 17 -36 45 -82 61 -101 27 -29 32 -47 42 -124 15 -121 13 -237 -5 -440 -8 -93 -18 -253 -21 -355 -4 -154 -3 -191 10 -223 16 -37 15 -40 -41 -215 l-58 -177 -54 -12 c-30 -7 -75 -19 -100 -27 -25 -8 -65 -18 -90 -21 -58 -9 -105 -22 -157 -46 -77 -34 -94 -21 -69 52 37 109 45 314 17 419 -10 36 -9 69 5 180 10 79 17 215 18 330 1 174 -2 200 -19 245 -20 48 -22 50 -63 53 -53 4 -106 -25 -172 -92 -24 -25 -50 -46 -57 -46 -7 0 -25 17 -40 37 -54 71 -259 270 -321 312 -261 176 -318 101 -227 -304 30 -134 82 -244 194 -413 l81 -123 -33 -33 c-19 -18 -47 -64 -63 -102 -16 -38 -60 -131 -97 -207 -50 -100 -67 -145 -63 -162 5 -18 1 -25 -13 -30 -23 -7 -51 -73 -51 -121 0 -19 -8 -51 -17 -72 l-17 -37 -4 43 c-4 48 15 109 72 237 20 44 36 88 36 97 0 9 12 28 26 42 18 16 25 30 20 41 -5 15 -15 17 -68 11 -34 -4 -78 -14 -96 -22 -33 -13 -37 -13 -79 15 -32 21 -62 31 -108 36 -35 4 -71 12 -79 19 -12 9 -16 69 -21 346 l-7 335 42 65 c24 36 59 85 80 110 115 139 242 335 362 559 31 59 37 65 80 76 84 21 165 92 208 180 11 22 27 45 37 51 10 6 31 36 46 65 15 30 63 102 106 161 91 124 107 155 160 315 35 106 53 179 93 378 l12 60 8 -86 c4 -47 19 -122 33 -167z m-2250 184 c10 -15 15 -40 13 -68 l-3 -43 -19 55 c-10 30 -21 61 -24 68 -8 22 17 13 33 -12z m1341 -48 c-25 -123 -37 -422 -21 -511 13 -67 -70 -389 -188 -732 -91 -265 -172 -485 -179 -485 -15 0 -12 1658 2 1674 5 5 25 -2 47 -15 30 -19 51 -24 99 -23 69 1 126 27 185 87 45 46 64 47 55 5z m-1348 -250 c12 -29 46 -120 76 -203 85 -234 144 -384 180 -460 19 -38 68 -141 109 -227 108 -225 236 -438 359 -596 27 -35 48 -67 46 -72 -2 -5 -23 2 -48 16 -25 13 -69 36 -98 50 -86 42 -234 124 -283 157 -46 30 -47 32 -53 96 -16 157 -86 331 -188 466 -57 76 -200 224 -288 299 l-55 46 -3 113 c-4 107 -3 114 25 167 24 45 38 59 80 80 29 14 56 36 63 50 18 39 40 70 48 70 5 0 18 -24 30 -52z m1362 -675 c16 -82 28 -114 50 -138 19 -20 19 -21 -15 -98 -18 -43 -51 -108 -73 -145 -61 -103 -206 -306 -209 -295 -2 6 35 129 83 274 98 301 133 416 134 442 0 39 19 13 30 -40z m-267 -1801 c8 -15 24 -58 37 -95 12 -37 33 -81 47 -97 32 -38 53 -109 52 -174 l0 -51 -23 65 c-36 104 -72 164 -124 211 -49 44 -49 45 -57 123 l-7 77 31 -15 c17 -9 37 -29 44 -44z m1025 -166 c18 -29 34 -66 35 -82 2 -24 -2 -29 -23 -32 -14 -2 -53 -12 -87 -24 -35 -12 -65 -19 -68 -16 -3 3 6 25 19 49 14 24 32 64 42 89 18 47 32 70 43 70 4 0 21 -24 39 -54z m-997 -82 c5 -6 23 -44 39 -85 27 -64 32 -93 42 -232 8 -118 8 -191 -1 -285 -18 -200 -24 -208 -49 -72 -65 351 -102 594 -102 672 l0 49 31 -18 c17 -10 35 -23 40 -29z m-187 -76 c9 -35 8 -38 -14 -38 -20 0 -25 15 -14 44 9 23 21 20 28 -6z m436 -353 c14 -62 41 -125 73 -167 22 -30 23 -37 13 -75 -10 -36 -25 -52 -121 -127 -60 -47 -113 -86 -117 -86 -4 0 -3 12 2 28 15 44 57 265 84 437 44 290 39 275 47 150 4 -60 12 -132 19 -160z m1210 245 c17 -9 13 -23 -62 -187 -77 -173 -208 -436 -214 -431 -1 2 -8 106 -14 233 -9 169 -9 230 -1 233 6 2 39 24 74 50 79 59 167 112 185 112 7 0 22 -4 32 -10z m198 -51 c23 -6 42 -13 42 -16 0 -3 -44 -53 -97 -111 -54 -59 -110 -123 -126 -142 l-27 -35 23 55 c69 161 123 270 132 266 5 -3 29 -10 53 -17z m-554 -210 c10 -97 7 -360 -5 -446 -9 -69 -23 -103 -124 -303 -125 -248 -219 -460 -275 -618 -20 -57 -41 -102 -46 -100 -20 7 -5 115 31 213 65 179 86 245 110 357 14 60 41 145 60 189 50 111 71 175 86 263 22 142 -11 361 -56 361 -24 0 -45 -39 -45 -86 0 -20 -9 -62 -21 -95 -32 -94 -59 -215 -59 -269 0 -27 7 -90 15 -139 13 -78 13 -98 0 -160 -23 -112 -48 -191 -108 -341 -31 -78 -62 -172 -68 -210 -11 -65 -11 -73 9 -112 24 -46 27 -69 13 -78 -5 -3 -20 18 -34 47 -44 96 -147 200 -167 169 -9 -16 -22 5 -63 104 l-24 60 7 350 c8 360 21 496 49 529 9 10 61 48 116 84 55 36 128 87 161 114 48 37 70 48 98 48 44 0 117 27 226 85 47 24 90 45 96 45 6 0 14 -27 18 -61z m-1283 -279 c31 -57 59 -123 55 -127 -6 -6 -59 74 -91 137 -26 52 -27 54 -5 39 12 -8 31 -30 41 -49z m460 -299 c-6 -80 -14 -218 -17 -305 l-7 -159 -17 34 c-10 19 -34 86 -55 149 -20 63 -45 139 -56 168 -37 103 -24 138 83 236 87 79 84 84 69 -123z m185 -845 c76 -65 121 -176 129 -321 l6 -90 -45 86 c-24 47 -52 111 -61 142 -9 31 -32 86 -51 123 -52 100 -45 118 22 60z"
       id="path1"
       style="fill:#8f9779;fill-opacity:1;stroke:#000000;stroke-opacity:1" />
  </g>
</svg>
